<?xml version="1.0" encoding="utf-8" standalone="no"?>
<!DOCTYPE svg PUBLIC "-//W3C//DTD SVG 1.1//EN"
  "http://www.w3.org/Graphics/SVG/1.1/DTD/svg11.dtd">
<svg xmlns:xlink="http://www.w3.org/1999/xlink" width="712.46125pt" height="423.034375pt" viewBox="0 0 712.46125 423.034375" xmlns="http://www.w3.org/2000/svg" version="1.1">
 <metadata>
  <rdf:RDF xmlns:dc="http://purl.org/dc/elements/1.1/" xmlns:cc="http://creativecommons.org/ns#" xmlns:rdf="http://www.w3.org/1999/02/22-rdf-syntax-ns#">
   <cc:Work>
    <dc:type rdf:resource="http://purl.org/dc/dcmitype/StillImage"/>
    <dc:date>2025-04-04T15:56:58.207308</dc:date>
    <dc:format>image/svg+xml</dc:format>
    <dc:creator>
     <cc:Agent>
      <dc:title>Matplotlib v3.10.1, https://matplotlib.org/</dc:title>
     </cc:Agent>
    </dc:creator>
   </cc:Work>
  </rdf:RDF>
 </metadata>
 <defs>
  <style type="text/css">*{stroke-linejoin: round; stroke-linecap: butt}</style>
 </defs>
 <g id="figure_1">
  <g id="patch_1">
   <path d="M 0 423.034375 
L 712.46125 423.034375 
L 712.46125 0 
L 0 0 
z
" style="fill: #ffffff"/>
  </g>
  <g id="axes_1">
   <g id="patch_2">
    <path d="M 43.78125 385.478125 
L 705.26125 385.478125 
L 705.26125 22.318125 
L 43.78125 22.318125 
z
" style="fill: #ffffff"/>
   </g>
   <g id="matplotlib.axis_1">
    <g id="xtick_1">
     <g id="line2d_1">
      <defs>
       <path id="mea2eababa1" d="M 0 0 
L 0 3.5 
" style="stroke: #000000; stroke-width: 0.8"/>
      </defs>
      <g>
       <use xlink:href="#mea2eababa1" x="67.774326" y="385.478125" style="stroke: #000000; stroke-width: 0.8"/>
      </g>
     </g>
     <g id="text_1">
      <!-- 0 -->
      <g transform="translate(64.593076 400.076562) scale(0.1 -0.1)">
       <defs>
        <path id="DejaVuSans-30" d="M 2034 4250 
Q 1547 4250 1301 3770 
Q 1056 3291 1056 2328 
Q 1056 1369 1301 889 
Q 1547 409 2034 409 
Q 2525 409 2770 889 
Q 3016 1369 3016 2328 
Q 3016 3291 2770 3770 
Q 2525 4250 2034 4250 
z
M 2034 4750 
Q 2819 4750 3233 4129 
Q 3647 3509 3647 2328 
Q 3647 1150 3233 529 
Q 2819 -91 2034 -91 
Q 1250 -91 836 529 
Q 422 1150 422 2328 
Q 422 3509 836 4129 
Q 1250 4750 2034 4750 
z
" transform="scale(0.015625)"/>
       </defs>
       <use xlink:href="#DejaVuSans-30"/>
      </g>
     </g>
    </g>
    <g id="xtick_2">
     <g id="line2d_2">
      <g>
       <use xlink:href="#mea2eababa1" x="189.258256" y="385.478125" style="stroke: #000000; stroke-width: 0.8"/>
      </g>
     </g>
     <g id="text_2">
      <!-- 20 -->
      <g transform="translate(182.895756 400.076562) scale(0.1 -0.1)">
       <defs>
        <path id="DejaVuSans-32" d="M 1228 531 
L 3431 531 
L 3431 0 
L 469 0 
L 469 531 
Q 828 903 1448 1529 
Q 2069 2156 2228 2338 
Q 2531 2678 2651 2914 
Q 2772 3150 2772 3378 
Q 2772 3750 2511 3984 
Q 2250 4219 1831 4219 
Q 1534 4219 1204 4116 
Q 875 4013 500 3803 
L 500 4441 
Q 881 4594 1212 4672 
Q 1544 4750 1819 4750 
Q 2544 4750 2975 4387 
Q 3406 4025 3406 3419 
Q 3406 3131 3298 2873 
Q 3191 2616 2906 2266 
Q 2828 2175 2409 1742 
Q 1991 1309 1228 531 
z
" transform="scale(0.015625)"/>
       </defs>
       <use xlink:href="#DejaVuSans-32"/>
       <use xlink:href="#DejaVuSans-30" transform="translate(63.623047 0)"/>
      </g>
     </g>
    </g>
    <g id="xtick_3">
     <g id="line2d_3">
      <g>
       <use xlink:href="#mea2eababa1" x="310.742187" y="385.478125" style="stroke: #000000; stroke-width: 0.8"/>
      </g>
     </g>
     <g id="text_3">
      <!-- 40 -->
      <g transform="translate(304.379687 400.076562) scale(0.1 -0.1)">
       <defs>
        <path id="DejaVuSans-34" d="M 2419 4116 
L 825 1625 
L 2419 1625 
L 2419 4116 
z
M 2253 4666 
L 3047 4666 
L 3047 1625 
L 3713 1625 
L 3713 1100 
L 3047 1100 
L 3047 0 
L 2419 0 
L 2419 1100 
L 313 1100 
L 313 1709 
L 2253 4666 
z
" transform="scale(0.015625)"/>
       </defs>
       <use xlink:href="#DejaVuSans-34"/>
       <use xlink:href="#DejaVuSans-30" transform="translate(63.623047 0)"/>
      </g>
     </g>
    </g>
    <g id="xtick_4">
     <g id="line2d_4">
      <g>
       <use xlink:href="#mea2eababa1" x="432.226117" y="385.478125" style="stroke: #000000; stroke-width: 0.8"/>
      </g>
     </g>
     <g id="text_4">
      <!-- 60 -->
      <g transform="translate(425.863617 400.076562) scale(0.1 -0.1)">
       <defs>
        <path id="DejaVuSans-36" d="M 2113 2584 
Q 1688 2584 1439 2293 
Q 1191 2003 1191 1497 
Q 1191 994 1439 701 
Q 1688 409 2113 409 
Q 2538 409 2786 701 
Q 3034 994 3034 1497 
Q 3034 2003 2786 2293 
Q 2538 2584 2113 2584 
z
M 3366 4563 
L 3366 3988 
Q 3128 4100 2886 4159 
Q 2644 4219 2406 4219 
Q 1781 4219 1451 3797 
Q 1122 3375 1075 2522 
Q 1259 2794 1537 2939 
Q 1816 3084 2150 3084 
Q 2853 3084 3261 2657 
Q 3669 2231 3669 1497 
Q 3669 778 3244 343 
Q 2819 -91 2113 -91 
Q 1303 -91 875 529 
Q 447 1150 447 2328 
Q 447 3434 972 4092 
Q 1497 4750 2381 4750 
Q 2619 4750 2861 4703 
Q 3103 4656 3366 4563 
z
" transform="scale(0.015625)"/>
       </defs>
       <use xlink:href="#DejaVuSans-36"/>
       <use xlink:href="#DejaVuSans-30" transform="translate(63.623047 0)"/>
      </g>
     </g>
    </g>
    <g id="xtick_5">
     <g id="line2d_5">
      <g>
       <use xlink:href="#mea2eababa1" x="553.710047" y="385.478125" style="stroke: #000000; stroke-width: 0.8"/>
      </g>
     </g>
     <g id="text_5">
      <!-- 80 -->
      <g transform="translate(547.347547 400.076562) scale(0.1 -0.1)">
       <defs>
        <path id="DejaVuSans-38" d="M 2034 2216 
Q 1584 2216 1326 1975 
Q 1069 1734 1069 1313 
Q 1069 891 1326 650 
Q 1584 409 2034 409 
Q 2484 409 2743 651 
Q 3003 894 3003 1313 
Q 3003 1734 2745 1975 
Q 2488 2216 2034 2216 
z
M 1403 2484 
Q 997 2584 770 2862 
Q 544 3141 544 3541 
Q 544 4100 942 4425 
Q 1341 4750 2034 4750 
Q 2731 4750 3128 4425 
Q 3525 4100 3525 3541 
Q 3525 3141 3298 2862 
Q 3072 2584 2669 2484 
Q 3125 2378 3379 2068 
Q 3634 1759 3634 1313 
Q 3634 634 3220 271 
Q 2806 -91 2034 -91 
Q 1263 -91 848 271 
Q 434 634 434 1313 
Q 434 1759 690 2068 
Q 947 2378 1403 2484 
z
M 1172 3481 
Q 1172 3119 1398 2916 
Q 1625 2713 2034 2713 
Q 2441 2713 2670 2916 
Q 2900 3119 2900 3481 
Q 2900 3844 2670 4047 
Q 2441 4250 2034 4250 
Q 1625 4250 1398 4047 
Q 1172 3844 1172 3481 
z
" transform="scale(0.015625)"/>
       </defs>
       <use xlink:href="#DejaVuSans-38"/>
       <use xlink:href="#DejaVuSans-30" transform="translate(63.623047 0)"/>
      </g>
     </g>
    </g>
    <g id="xtick_6">
     <g id="line2d_6">
      <g>
       <use xlink:href="#mea2eababa1" x="675.193977" y="385.478125" style="stroke: #000000; stroke-width: 0.8"/>
      </g>
     </g>
     <g id="text_6">
      <!-- 100 -->
      <g transform="translate(665.650227 400.076562) scale(0.1 -0.1)">
       <defs>
        <path id="DejaVuSans-31" d="M 794 531 
L 1825 531 
L 1825 4091 
L 703 3866 
L 703 4441 
L 1819 4666 
L 2450 4666 
L 2450 531 
L 3481 531 
L 3481 0 
L 794 0 
L 794 531 
z
" transform="scale(0.015625)"/>
       </defs>
       <use xlink:href="#DejaVuSans-31"/>
       <use xlink:href="#DejaVuSans-30" transform="translate(63.623047 0)"/>
       <use xlink:href="#DejaVuSans-30" transform="translate(127.246094 0)"/>
      </g>
     </g>
    </g>
    <g id="text_7">
     <!-- Epoch -->
     <g transform="translate(359.210312 413.754687) scale(0.1 -0.1)">
      <defs>
       <path id="DejaVuSans-45" d="M 628 4666 
L 3578 4666 
L 3578 4134 
L 1259 4134 
L 1259 2753 
L 3481 2753 
L 3481 2222 
L 1259 2222 
L 1259 531 
L 3634 531 
L 3634 0 
L 628 0 
L 628 4666 
z
" transform="scale(0.015625)"/>
       <path id="DejaVuSans-70" d="M 1159 525 
L 1159 -1331 
L 581 -1331 
L 581 3500 
L 1159 3500 
L 1159 2969 
Q 1341 3281 1617 3432 
Q 1894 3584 2278 3584 
Q 2916 3584 3314 3078 
Q 3713 2572 3713 1747 
Q 3713 922 3314 415 
Q 2916 -91 2278 -91 
Q 1894 -91 1617 61 
Q 1341 213 1159 525 
z
M 3116 1747 
Q 3116 2381 2855 2742 
Q 2594 3103 2138 3103 
Q 1681 3103 1420 2742 
Q 1159 2381 1159 1747 
Q 1159 1113 1420 752 
Q 1681 391 2138 391 
Q 2594 391 2855 752 
Q 3116 1113 3116 1747 
z
" transform="scale(0.015625)"/>
       <path id="DejaVuSans-6f" d="M 1959 3097 
Q 1497 3097 1228 2736 
Q 959 2375 959 1747 
Q 959 1119 1226 758 
Q 1494 397 1959 397 
Q 2419 397 2687 759 
Q 2956 1122 2956 1747 
Q 2956 2369 2687 2733 
Q 2419 3097 1959 3097 
z
M 1959 3584 
Q 2709 3584 3137 3096 
Q 3566 2609 3566 1747 
Q 3566 888 3137 398 
Q 2709 -91 1959 -91 
Q 1206 -91 779 398 
Q 353 888 353 1747 
Q 353 2609 779 3096 
Q 1206 3584 1959 3584 
z
" transform="scale(0.015625)"/>
       <path id="DejaVuSans-63" d="M 3122 3366 
L 3122 2828 
Q 2878 2963 2633 3030 
Q 2388 3097 2138 3097 
Q 1578 3097 1268 2742 
Q 959 2388 959 1747 
Q 959 1106 1268 751 
Q 1578 397 2138 397 
Q 2388 397 2633 464 
Q 2878 531 3122 666 
L 3122 134 
Q 2881 22 2623 -34 
Q 2366 -91 2075 -91 
Q 1284 -91 818 406 
Q 353 903 353 1747 
Q 353 2603 823 3093 
Q 1294 3584 2113 3584 
Q 2378 3584 2631 3529 
Q 2884 3475 3122 3366 
z
" transform="scale(0.015625)"/>
       <path id="DejaVuSans-68" d="M 3513 2113 
L 3513 0 
L 2938 0 
L 2938 2094 
Q 2938 2591 2744 2837 
Q 2550 3084 2163 3084 
Q 1697 3084 1428 2787 
Q 1159 2491 1159 1978 
L 1159 0 
L 581 0 
L 581 4863 
L 1159 4863 
L 1159 2956 
Q 1366 3272 1645 3428 
Q 1925 3584 2291 3584 
Q 2894 3584 3203 3211 
Q 3513 2838 3513 2113 
z
" transform="scale(0.015625)"/>
      </defs>
      <use xlink:href="#DejaVuSans-45"/>
      <use xlink:href="#DejaVuSans-70" transform="translate(63.183594 0)"/>
      <use xlink:href="#DejaVuSans-6f" transform="translate(126.660156 0)"/>
      <use xlink:href="#DejaVuSans-63" transform="translate(187.841797 0)"/>
      <use xlink:href="#DejaVuSans-68" transform="translate(242.822266 0)"/>
     </g>
    </g>
   </g>
   <g id="matplotlib.axis_2">
    <g id="ytick_1">
     <g id="line2d_7">
      <defs>
       <path id="m1955b12a70" d="M 0 0 
L -3.5 0 
" style="stroke: #000000; stroke-width: 0.8"/>
      </defs>
      <g>
       <use xlink:href="#m1955b12a70" x="43.78125" y="335.956307" style="stroke: #000000; stroke-width: 0.8"/>
      </g>
     </g>
     <g id="text_8">
      <!-- 0.3 -->
      <g transform="translate(20.878125 339.755526) scale(0.1 -0.1)">
       <defs>
        <path id="DejaVuSans-2e" d="M 684 794 
L 1344 794 
L 1344 0 
L 684 0 
L 684 794 
z
" transform="scale(0.015625)"/>
        <path id="DejaVuSans-33" d="M 2597 2516 
Q 3050 2419 3304 2112 
Q 3559 1806 3559 1356 
Q 3559 666 3084 287 
Q 2609 -91 1734 -91 
Q 1441 -91 1130 -33 
Q 819 25 488 141 
L 488 750 
Q 750 597 1062 519 
Q 1375 441 1716 441 
Q 2309 441 2620 675 
Q 2931 909 2931 1356 
Q 2931 1769 2642 2001 
Q 2353 2234 1838 2234 
L 1294 2234 
L 1294 2753 
L 1863 2753 
Q 2328 2753 2575 2939 
Q 2822 3125 2822 3475 
Q 2822 3834 2567 4026 
Q 2313 4219 1838 4219 
Q 1578 4219 1281 4162 
Q 984 4106 628 3988 
L 628 4550 
Q 988 4650 1302 4700 
Q 1616 4750 1894 4750 
Q 2613 4750 3031 4423 
Q 3450 4097 3450 3541 
Q 3450 3153 3228 2886 
Q 3006 2619 2597 2516 
z
" transform="scale(0.015625)"/>
       </defs>
       <use xlink:href="#DejaVuSans-30"/>
       <use xlink:href="#DejaVuSans-2e" transform="translate(63.623047 0)"/>
       <use xlink:href="#DejaVuSans-33" transform="translate(95.410156 0)"/>
      </g>
     </g>
    </g>
    <g id="ytick_2">
     <g id="line2d_8">
      <g>
       <use xlink:href="#m1955b12a70" x="43.78125" y="269.927216" style="stroke: #000000; stroke-width: 0.8"/>
      </g>
     </g>
     <g id="text_9">
      <!-- 0.4 -->
      <g transform="translate(20.878125 273.726435) scale(0.1 -0.1)">
       <use xlink:href="#DejaVuSans-30"/>
       <use xlink:href="#DejaVuSans-2e" transform="translate(63.623047 0)"/>
       <use xlink:href="#DejaVuSans-34" transform="translate(95.410156 0)"/>
      </g>
     </g>
    </g>
    <g id="ytick_3">
     <g id="line2d_9">
      <g>
       <use xlink:href="#m1955b12a70" x="43.78125" y="203.898125" style="stroke: #000000; stroke-width: 0.8"/>
      </g>
     </g>
     <g id="text_10">
      <!-- 0.5 -->
      <g transform="translate(20.878125 207.697344) scale(0.1 -0.1)">
       <defs>
        <path id="DejaVuSans-35" d="M 691 4666 
L 3169 4666 
L 3169 4134 
L 1269 4134 
L 1269 2991 
Q 1406 3038 1543 3061 
Q 1681 3084 1819 3084 
Q 2600 3084 3056 2656 
Q 3513 2228 3513 1497 
Q 3513 744 3044 326 
Q 2575 -91 1722 -91 
Q 1428 -91 1123 -41 
Q 819 9 494 109 
L 494 744 
Q 775 591 1075 516 
Q 1375 441 1709 441 
Q 2250 441 2565 725 
Q 2881 1009 2881 1497 
Q 2881 1984 2565 2268 
Q 2250 2553 1709 2553 
Q 1456 2553 1204 2497 
Q 953 2441 691 2322 
L 691 4666 
z
" transform="scale(0.015625)"/>
       </defs>
       <use xlink:href="#DejaVuSans-30"/>
       <use xlink:href="#DejaVuSans-2e" transform="translate(63.623047 0)"/>
       <use xlink:href="#DejaVuSans-35" transform="translate(95.410156 0)"/>
      </g>
     </g>
    </g>
    <g id="ytick_4">
     <g id="line2d_10">
      <g>
       <use xlink:href="#m1955b12a70" x="43.78125" y="137.869034" style="stroke: #000000; stroke-width: 0.8"/>
      </g>
     </g>
     <g id="text_11">
      <!-- 0.6 -->
      <g transform="translate(20.878125 141.668253) scale(0.1 -0.1)">
       <use xlink:href="#DejaVuSans-30"/>
       <use xlink:href="#DejaVuSans-2e" transform="translate(63.623047 0)"/>
       <use xlink:href="#DejaVuSans-36" transform="translate(95.410156 0)"/>
      </g>
     </g>
    </g>
    <g id="ytick_5">
     <g id="line2d_11">
      <g>
       <use xlink:href="#m1955b12a70" x="43.78125" y="71.839943" style="stroke: #000000; stroke-width: 0.8"/>
      </g>
     </g>
     <g id="text_12">
      <!-- 0.7 -->
      <g transform="translate(20.878125 75.639162) scale(0.1 -0.1)">
       <defs>
        <path id="DejaVuSans-37" d="M 525 4666 
L 3525 4666 
L 3525 4397 
L 1831 0 
L 1172 0 
L 2766 4134 
L 525 4134 
L 525 4666 
z
" transform="scale(0.015625)"/>
       </defs>
       <use xlink:href="#DejaVuSans-30"/>
       <use xlink:href="#DejaVuSans-2e" transform="translate(63.623047 0)"/>
       <use xlink:href="#DejaVuSans-37" transform="translate(95.410156 0)"/>
      </g>
     </g>
    </g>
    <g id="text_13">
     <!-- Test Recall -->
     <g transform="translate(14.798438 230.249687) rotate(-90) scale(0.1 -0.1)">
      <defs>
       <path id="DejaVuSans-54" d="M -19 4666 
L 3928 4666 
L 3928 4134 
L 2272 4134 
L 2272 0 
L 1638 0 
L 1638 4134 
L -19 4134 
L -19 4666 
z
" transform="scale(0.015625)"/>
       <path id="DejaVuSans-65" d="M 3597 1894 
L 3597 1613 
L 953 1613 
Q 991 1019 1311 708 
Q 1631 397 2203 397 
Q 2534 397 2845 478 
Q 3156 559 3463 722 
L 3463 178 
Q 3153 47 2828 -22 
Q 2503 -91 2169 -91 
Q 1331 -91 842 396 
Q 353 884 353 1716 
Q 353 2575 817 3079 
Q 1281 3584 2069 3584 
Q 2775 3584 3186 3129 
Q 3597 2675 3597 1894 
z
M 3022 2063 
Q 3016 2534 2758 2815 
Q 2500 3097 2075 3097 
Q 1594 3097 1305 2825 
Q 1016 2553 972 2059 
L 3022 2063 
z
" transform="scale(0.015625)"/>
       <path id="DejaVuSans-73" d="M 2834 3397 
L 2834 2853 
Q 2591 2978 2328 3040 
Q 2066 3103 1784 3103 
Q 1356 3103 1142 2972 
Q 928 2841 928 2578 
Q 928 2378 1081 2264 
Q 1234 2150 1697 2047 
L 1894 2003 
Q 2506 1872 2764 1633 
Q 3022 1394 3022 966 
Q 3022 478 2636 193 
Q 2250 -91 1575 -91 
Q 1294 -91 989 -36 
Q 684 19 347 128 
L 347 722 
Q 666 556 975 473 
Q 1284 391 1588 391 
Q 1994 391 2212 530 
Q 2431 669 2431 922 
Q 2431 1156 2273 1281 
Q 2116 1406 1581 1522 
L 1381 1569 
Q 847 1681 609 1914 
Q 372 2147 372 2553 
Q 372 3047 722 3315 
Q 1072 3584 1716 3584 
Q 2034 3584 2315 3537 
Q 2597 3491 2834 3397 
z
" transform="scale(0.015625)"/>
       <path id="DejaVuSans-74" d="M 1172 4494 
L 1172 3500 
L 2356 3500 
L 2356 3053 
L 1172 3053 
L 1172 1153 
Q 1172 725 1289 603 
Q 1406 481 1766 481 
L 2356 481 
L 2356 0 
L 1766 0 
Q 1100 0 847 248 
Q 594 497 594 1153 
L 594 3053 
L 172 3053 
L 172 3500 
L 594 3500 
L 594 4494 
L 1172 4494 
z
" transform="scale(0.015625)"/>
       <path id="DejaVuSans-20" transform="scale(0.015625)"/>
       <path id="DejaVuSans-52" d="M 2841 2188 
Q 3044 2119 3236 1894 
Q 3428 1669 3622 1275 
L 4263 0 
L 3584 0 
L 2988 1197 
Q 2756 1666 2539 1819 
Q 2322 1972 1947 1972 
L 1259 1972 
L 1259 0 
L 628 0 
L 628 4666 
L 2053 4666 
Q 2853 4666 3247 4331 
Q 3641 3997 3641 3322 
Q 3641 2881 3436 2590 
Q 3231 2300 2841 2188 
z
M 1259 4147 
L 1259 2491 
L 2053 2491 
Q 2509 2491 2742 2702 
Q 2975 2913 2975 3322 
Q 2975 3731 2742 3939 
Q 2509 4147 2053 4147 
L 1259 4147 
z
" transform="scale(0.015625)"/>
       <path id="DejaVuSans-61" d="M 2194 1759 
Q 1497 1759 1228 1600 
Q 959 1441 959 1056 
Q 959 750 1161 570 
Q 1363 391 1709 391 
Q 2188 391 2477 730 
Q 2766 1069 2766 1631 
L 2766 1759 
L 2194 1759 
z
M 3341 1997 
L 3341 0 
L 2766 0 
L 2766 531 
Q 2569 213 2275 61 
Q 1981 -91 1556 -91 
Q 1019 -91 701 211 
Q 384 513 384 1019 
Q 384 1609 779 1909 
Q 1175 2209 1959 2209 
L 2766 2209 
L 2766 2266 
Q 2766 2663 2505 2880 
Q 2244 3097 1772 3097 
Q 1472 3097 1187 3025 
Q 903 2953 641 2809 
L 641 3341 
Q 956 3463 1253 3523 
Q 1550 3584 1831 3584 
Q 2591 3584 2966 3190 
Q 3341 2797 3341 1997 
z
" transform="scale(0.015625)"/>
       <path id="DejaVuSans-6c" d="M 603 4863 
L 1178 4863 
L 1178 0 
L 603 0 
L 603 4863 
z
" transform="scale(0.015625)"/>
      </defs>
      <use xlink:href="#DejaVuSans-54"/>
      <use xlink:href="#DejaVuSans-65" transform="translate(44.083984 0)"/>
      <use xlink:href="#DejaVuSans-73" transform="translate(105.607422 0)"/>
      <use xlink:href="#DejaVuSans-74" transform="translate(157.707031 0)"/>
      <use xlink:href="#DejaVuSans-20" transform="translate(196.916016 0)"/>
      <use xlink:href="#DejaVuSans-52" transform="translate(228.703125 0)"/>
      <use xlink:href="#DejaVuSans-65" transform="translate(293.685547 0)"/>
      <use xlink:href="#DejaVuSans-63" transform="translate(355.208984 0)"/>
      <use xlink:href="#DejaVuSans-61" transform="translate(410.189453 0)"/>
      <use xlink:href="#DejaVuSans-6c" transform="translate(471.46875 0)"/>
      <use xlink:href="#DejaVuSans-6c" transform="translate(499.251953 0)"/>
     </g>
    </g>
   </g>
   <g id="line2d_12">
    <path d="M 73.848523 368.970852 
L 79.922719 368.970852 
L 85.996916 368.970852 
L 92.071112 247.669841 
L 98.145309 229.483863 
L 104.219505 229.483863 
L 110.293702 228.084941 
L 116.367898 225.287098 
L 122.442095 223.888177 
L 128.516291 226.594287 
L 134.590488 223.888177 
L 140.664684 223.888177 
L 146.738881 225.287098 
L 152.813077 225.287098 
L 158.887274 225.287098 
L 164.96147 225.287098 
L 171.035667 225.287098 
L 177.109863 225.287098 
L 183.18406 225.287098 
L 189.258256 225.287098 
L 195.332453 225.287098 
L 201.406649 225.287098 
L 207.480846 225.287098 
L 213.555042 224.790214 
L 219.629239 64.447005 
L 225.703435 64.447005 
L 231.777632 64.447005 
L 237.851829 63.048084 
L 243.926025 58.81545 
L 250.000222 64.447005 
L 256.074418 58.81545 
L 262.148615 63.048084 
L 268.222811 63.048084 
L 274.297008 58.81545 
L 280.371204 60.214371 
L 286.445401 60.214371 
L 292.519597 70.94708 
L 298.593794 60.214371 
L 304.66799 58.81545 
L 310.742187 58.81545 
L 316.816383 57.416528 
L 322.89058 57.416528 
L 328.964776 57.416528 
L 335.038973 57.416528 
L 341.113169 57.416528 
L 347.187366 57.416528 
L 353.261562 58.318565 
L 359.335759 60.214371 
L 365.409955 60.214371 
L 371.484152 57.416528 
L 377.558348 58.318565 
L 383.632545 58.81545 
L 389.706741 58.81545 
L 395.780938 58.81545 
L 401.855134 58.81545 
L 407.929331 58.318565 
L 414.003527 57.416528 
L 420.077724 60.214371 
L 426.15192 61.649162 
L 432.226117 60.122639 
L 438.300313 58.81545 
L 444.37451 58.81545 
L 450.448706 58.81545 
L 456.522903 58.81545 
L 462.597099 57.416528 
L 468.671296 58.318565 
L 474.745492 57.416528 
L 480.819689 58.81545 
L 486.893885 57.416528 
L 492.968082 58.318565 
L 499.042278 58.81545 
L 505.116475 58.81545 
L 511.190671 58.81545 
L 517.264868 60.214371 
L 523.339065 60.214371 
L 529.413261 58.81545 
L 535.487458 58.81545 
L 541.561654 60.214371 
L 547.635851 60.214371 
L 553.710047 58.81545 
L 559.784244 57.416528 
L 565.85844 57.416528 
L 571.932637 57.416528 
L 578.006833 58.318565 
L 584.08103 60.214371 
L 590.155226 57.416528 
L 596.229423 57.416528 
L 602.303619 57.416528 
L 608.377816 58.318565 
L 614.452012 58.318565 
L 620.526209 58.318565 
L 626.600405 58.81545 
L 632.674602 65.810057 
L 638.748798 57.416528 
L 644.822995 57.416528 
L 650.897191 58.81545 
L 656.971388 57.416528 
L 663.045584 42.028393 
L 669.119781 40.629471 
L 675.193977 42.433545 
" clip-path="url(#p2b4b1fd8bc)" style="fill: none; stroke: #1f77b4; stroke-width: 1.5; stroke-linecap: square"/>
   </g>
   <g id="line2d_13">
    <path d="M 73.848523 368.970852 
L 79.922719 368.970852 
L 85.996916 368.970852 
L 92.071112 248.66361 
L 98.145309 243.067925 
L 104.219505 237.472239 
L 110.293702 71.839943 
L 116.367898 69.112046 
L 122.442095 68.620118 
L 128.516291 67.713125 
L 134.590488 67.713125 
L 140.664684 67.713125 
L 146.738881 67.713125 
L 152.813077 67.713125 
L 158.887274 67.713125 
L 164.96147 67.713125 
L 171.035667 67.713125 
L 177.109863 68.620118 
L 183.18406 67.713125 
L 189.258256 67.713125 
L 195.332453 67.713125 
L 201.406649 67.713125 
L 207.480846 67.713125 
L 213.555042 67.713125 
L 219.629239 67.713125 
L 225.703435 67.713125 
L 231.777632 67.713125 
L 237.851829 69.112046 
L 243.926025 67.713125 
L 250.000222 67.713125 
L 256.074418 67.713125 
L 262.148615 67.713125 
L 268.222811 67.713125 
L 274.297008 68.620118 
L 280.371204 67.713125 
L 286.445401 67.713125 
L 292.519597 67.713125 
L 298.593794 60.366482 
L 304.66799 45.25813 
L 310.742187 41.131312 
L 316.816383 38.825398 
L 322.89058 38.825398 
L 328.964776 38.825398 
L 335.038973 40.224319 
L 341.113169 38.825398 
L 347.187366 38.825398 
L 353.261562 38.825398 
L 359.335759 38.825398 
L 365.409955 38.825398 
L 371.484152 38.825398 
L 377.558348 38.825398 
L 383.632545 38.825398 
L 389.706741 38.825398 
L 395.780938 38.825398 
L 401.855134 38.825398 
L 407.929331 38.825398 
L 414.003527 38.825398 
L 420.077724 38.825398 
L 426.15192 38.825398 
L 432.226117 38.825398 
L 438.300313 38.825398 
L 444.37451 38.825398 
L 450.448706 38.825398 
L 456.522903 38.825398 
L 462.597099 38.825398 
L 468.671296 38.825398 
L 474.745492 38.825398 
L 480.819689 38.825398 
L 486.893885 38.825398 
L 492.968082 38.825398 
L 499.042278 38.825398 
L 505.116475 38.825398 
L 511.190671 38.825398 
L 517.264868 38.825398 
L 523.339065 38.825398 
L 529.413261 38.825398 
L 535.487458 38.825398 
L 541.561654 38.825398 
L 547.635851 38.825398 
L 553.710047 38.825398 
L 559.784244 38.825398 
L 565.85844 38.825398 
L 571.932637 38.825398 
L 578.006833 38.825398 
L 584.08103 38.825398 
L 590.155226 38.825398 
L 596.229423 38.825398 
L 602.303619 38.825398 
L 608.377816 38.825398 
L 614.452012 38.825398 
L 620.526209 38.825398 
L 626.600405 38.825398 
L 632.674602 38.825398 
L 638.748798 38.825398 
L 644.822995 38.825398 
L 650.897191 38.825398 
L 656.971388 38.825398 
L 663.045584 38.825398 
L 669.119781 38.825398 
L 675.193977 38.825398 
" clip-path="url(#p2b4b1fd8bc)" style="fill: none; stroke: #ff7f0e; stroke-width: 1.5; stroke-linecap: square"/>
   </g>
   <g id="line2d_14">
    <path d="M 73.848523 368.970852 
L 79.922719 368.970852 
L 85.996916 368.970852 
L 92.071112 264.958739 
L 98.145309 242.575996 
L 104.219505 240.685146 
L 110.293702 241.177075 
L 116.367898 236.488382 
L 122.442095 238.379232 
L 128.516291 235.089461 
L 134.590488 236.980311 
L 140.664684 235.089461 
L 146.738881 236.980311 
L 152.813077 234.182468 
L 158.887274 234.182468 
L 164.96147 234.182468 
L 171.035667 234.182468 
L 177.109863 235.581389 
L 183.18406 234.182468 
L 189.258256 234.182468 
L 195.332453 234.182468 
L 201.406649 234.182468 
L 207.480846 234.182468 
L 213.555042 234.182468 
L 219.629239 234.182468 
L 225.703435 234.182468 
L 231.777632 234.182468 
L 237.851829 234.182468 
L 243.926025 234.182468 
L 250.000222 234.182468 
L 256.074418 234.182468 
L 262.148615 234.182468 
L 268.222811 234.182468 
L 274.297008 234.182468 
L 280.371204 234.182468 
L 286.445401 234.182468 
L 292.519597 234.182468 
L 298.593794 234.182468 
L 304.66799 234.182468 
L 310.742187 234.182468 
L 316.816383 234.182468 
L 322.89058 234.182468 
L 328.964776 234.182468 
L 335.038973 234.182468 
L 341.113169 234.182468 
L 347.187366 234.182468 
L 353.261562 234.182468 
L 359.335759 234.182468 
L 365.409955 234.182468 
L 371.484152 234.182468 
L 377.558348 234.182468 
L 383.632545 234.182468 
L 389.706741 234.182468 
L 395.780938 234.182468 
L 401.855134 234.182468 
L 407.929331 234.182468 
L 414.003527 96.948277 
L 420.077724 103.942884 
L 426.15192 101.145041 
L 432.226117 98.347198 
L 438.300313 101.145041 
L 444.37451 96.948277 
L 450.448706 98.347198 
L 456.522903 102.543962 
L 462.597099 92.751512 
L 468.671296 99.74612 
L 474.745492 96.948277 
L 480.819689 94.150434 
L 486.893885 99.74612 
L 492.968082 95.549355 
L 499.042278 101.145041 
L 505.116475 91.352591 
L 511.190671 92.891405 
L 517.264868 88.554748 
L 523.339065 88.69464 
L 529.413261 91.352591 
L 535.487458 84.357984 
L 541.561654 83.098955 
L 547.635851 81.560141 
L 553.710047 80.301112 
L 559.784244 73.306505 
L 565.85844 70.508662 
L 571.932637 70.508662 
L 578.006833 77.363377 
L 584.08103 70.508662 
L 590.155226 70.508662 
L 596.229423 70.508662 
L 602.303619 70.508662 
L 608.377816 70.508662 
L 614.452012 70.508662 
L 620.526209 70.508662 
L 626.600405 70.508662 
L 632.674602 70.508662 
L 638.748798 70.508662 
L 644.822995 70.508662 
L 650.897191 69.109741 
L 656.971388 69.109741 
L 663.045584 45.328076 
L 669.119781 41.131312 
L 675.193977 41.131312 
" clip-path="url(#p2b4b1fd8bc)" style="fill: none; stroke: #2ca02c; stroke-width: 1.5; stroke-linecap: square"/>
   </g>
   <g id="line2d_15">
    <path d="M 73.848523 368.970852 
L 79.922719 368.970852 
L 85.996916 368.970852 
L 92.071112 252.860375 
L 98.145309 238.379232 
L 104.219505 238.379232 
L 110.293702 238.379232 
L 116.367898 236.980311 
L 122.442095 238.379232 
L 128.516291 236.980311 
L 134.590488 238.379232 
L 140.664684 236.980311 
L 146.738881 235.581389 
L 152.813077 234.182468 
L 158.887274 238.379232 
L 164.96147 234.182468 
L 171.035667 238.379232 
L 177.109863 234.182468 
L 183.18406 236.980311 
L 189.258256 234.182468 
L 195.332453 234.182468 
L 201.406649 238.379232 
L 207.480846 234.182468 
L 213.555042 236.980311 
L 219.629239 238.379232 
L 225.703435 234.182468 
L 231.777632 90.272911 
L 237.851829 70.508662 
L 243.926025 73.306505 
L 250.000222 69.109741 
L 256.074418 71.907583 
L 262.148615 71.907583 
L 268.222811 74.705426 
L 274.297008 69.109741 
L 280.371204 69.109741 
L 286.445401 69.109741 
L 292.519597 71.907583 
L 298.593794 70.508662 
L 304.66799 70.508662 
L 310.742187 69.109741 
L 316.816383 70.508662 
L 322.89058 69.109741 
L 328.964776 69.109741 
L 335.038973 69.109741 
L 341.113169 69.109741 
L 347.187366 69.109741 
L 353.261562 70.508662 
L 359.335759 69.109741 
L 365.409955 69.109741 
L 371.484152 69.109741 
L 377.558348 69.109741 
L 383.632545 69.109741 
L 389.706741 71.907583 
L 395.780938 69.109741 
L 401.855134 67.710819 
L 407.929331 41.131312 
L 414.003527 40.639384 
L 420.077724 41.546377 
L 426.15192 39.732391 
L 432.226117 39.732391 
L 438.300313 39.732391 
L 444.37451 39.732391 
L 450.448706 39.732391 
L 456.522903 39.732391 
L 462.597099 39.732391 
L 468.671296 39.732391 
L 474.745492 39.732391 
L 480.819689 39.732391 
L 486.893885 39.732391 
L 492.968082 39.732391 
L 499.042278 39.732391 
L 505.116475 39.732391 
L 511.190671 39.732391 
L 517.264868 39.732391 
L 523.339065 39.732391 
L 529.413261 39.732391 
L 535.487458 39.732391 
L 541.561654 39.732391 
L 547.635851 39.732391 
L 553.710047 39.732391 
L 559.784244 39.732391 
L 565.85844 39.732391 
L 571.932637 39.732391 
L 578.006833 39.732391 
L 584.08103 39.732391 
L 590.155226 41.131312 
L 596.229423 39.732391 
L 602.303619 39.732391 
L 608.377816 39.732391 
L 614.452012 39.732391 
L 620.526209 39.732391 
L 626.600405 39.732391 
L 632.674602 39.732391 
L 638.748798 39.732391 
L 644.822995 39.732391 
L 650.897191 39.732391 
L 656.971388 39.732391 
L 663.045584 39.732391 
L 669.119781 39.732391 
L 675.193977 39.732391 
" clip-path="url(#p2b4b1fd8bc)" style="fill: none; stroke: #d62728; stroke-width: 1.5; stroke-linecap: square"/>
   </g>
   <g id="line2d_16">
    <path d="M 73.848523 368.970852 
L 79.922719 368.970852 
L 85.996916 257.007604 
L 92.071112 247.131458 
L 98.145309 245.72058 
L 104.219505 244.309702 
L 110.293702 241.487946 
L 116.367898 241.487946 
L 122.442095 242.898824 
L 128.516291 241.487946 
L 134.590488 241.487946 
L 140.664684 241.487946 
L 146.738881 242.898824 
L 152.813077 241.487946 
L 158.887274 241.487946 
L 164.96147 240.077068 
L 171.035667 101.811023 
L 177.109863 98.989267 
L 183.18406 86.694473 
L 189.258256 91.934877 
L 195.332453 76.415219 
L 201.406649 75.004341 
L 207.480846 75.004341 
L 213.555042 75.004341 
L 219.629239 75.004341 
L 225.703435 75.004341 
L 231.777632 75.004341 
L 237.851829 75.004341 
L 243.926025 83.469609 
L 250.000222 75.911334 
L 256.074418 77.826097 
L 262.148615 75.004341 
L 268.222811 75.004341 
L 274.297008 75.004341 
L 280.371204 76.818327 
L 286.445401 75.004341 
L 292.519597 75.004341 
L 298.593794 75.004341 
L 304.66799 76.415219 
L 310.742187 75.004341 
L 316.816383 76.415219 
L 322.89058 76.415219 
L 328.964776 75.004341 
L 335.038973 76.415219 
L 341.113169 75.004341 
L 347.187366 75.004341 
L 353.261562 75.004341 
L 359.335759 76.415219 
L 365.409955 76.415219 
L 371.484152 76.415219 
L 377.558348 83.469609 
L 383.632545 76.415219 
L 389.706741 76.415219 
L 395.780938 75.004341 
L 401.855134 75.911334 
L 407.929331 75.004341 
L 414.003527 76.415219 
L 420.077724 75.004341 
L 426.15192 75.004341 
L 432.226117 75.004341 
L 438.300313 75.004341 
L 444.37451 75.004341 
L 450.448706 75.004341 
L 456.522903 75.004341 
L 462.597099 75.004341 
L 468.671296 75.004341 
L 474.745492 75.004341 
L 480.819689 75.004341 
L 486.893885 75.004341 
L 492.968082 75.004341 
L 499.042278 76.415219 
L 505.116475 75.004341 
L 511.190671 75.004341 
L 517.264868 45.375903 
L 523.339065 45.375903 
L 529.413261 42.554147 
L 535.487458 43.965025 
L 541.561654 43.965025 
L 547.635851 45.375903 
L 553.710047 43.965025 
L 559.784244 42.554147 
L 565.85844 41.143269 
L 571.932637 42.554147 
L 578.006833 41.143269 
L 584.08103 41.143269 
L 590.155226 44.872018 
L 596.229423 41.143269 
L 602.303619 41.143269 
L 608.377816 41.143269 
L 614.452012 41.143269 
L 620.526209 41.143269 
L 626.600405 41.143269 
L 632.674602 41.143269 
L 638.748798 41.143269 
L 644.822995 41.143269 
L 650.897191 41.143269 
L 656.971388 41.143269 
L 663.045584 41.143269 
L 669.119781 41.143269 
L 675.193977 41.143269 
" clip-path="url(#p2b4b1fd8bc)" style="fill: none; stroke: #9467bd; stroke-width: 1.5; stroke-linecap: square"/>
   </g>
   <g id="patch_3">
    <path d="M 43.78125 385.478125 
L 43.78125 22.318125 
" style="fill: none; stroke: #000000; stroke-width: 0.8; stroke-linejoin: miter; stroke-linecap: square"/>
   </g>
   <g id="patch_4">
    <path d="M 705.26125 385.478125 
L 705.26125 22.318125 
" style="fill: none; stroke: #000000; stroke-width: 0.8; stroke-linejoin: miter; stroke-linecap: square"/>
   </g>
   <g id="patch_5">
    <path d="M 43.78125 385.478125 
L 705.26125 385.478125 
" style="fill: none; stroke: #000000; stroke-width: 0.8; stroke-linejoin: miter; stroke-linecap: square"/>
   </g>
   <g id="patch_6">
    <path d="M 43.78125 22.318125 
L 705.26125 22.318125 
" style="fill: none; stroke: #000000; stroke-width: 0.8; stroke-linejoin: miter; stroke-linecap: square"/>
   </g>
   <g id="text_14">
    <!-- Combined Test Recall -->
    <g transform="translate(310.507812 16.318125) scale(0.12 -0.12)">
     <defs>
      <path id="DejaVuSans-43" d="M 4122 4306 
L 4122 3641 
Q 3803 3938 3442 4084 
Q 3081 4231 2675 4231 
Q 1875 4231 1450 3742 
Q 1025 3253 1025 2328 
Q 1025 1406 1450 917 
Q 1875 428 2675 428 
Q 3081 428 3442 575 
Q 3803 722 4122 1019 
L 4122 359 
Q 3791 134 3420 21 
Q 3050 -91 2638 -91 
Q 1578 -91 968 557 
Q 359 1206 359 2328 
Q 359 3453 968 4101 
Q 1578 4750 2638 4750 
Q 3056 4750 3426 4639 
Q 3797 4528 4122 4306 
z
" transform="scale(0.015625)"/>
      <path id="DejaVuSans-6d" d="M 3328 2828 
Q 3544 3216 3844 3400 
Q 4144 3584 4550 3584 
Q 5097 3584 5394 3201 
Q 5691 2819 5691 2113 
L 5691 0 
L 5113 0 
L 5113 2094 
Q 5113 2597 4934 2840 
Q 4756 3084 4391 3084 
Q 3944 3084 3684 2787 
Q 3425 2491 3425 1978 
L 3425 0 
L 2847 0 
L 2847 2094 
Q 2847 2600 2669 2842 
Q 2491 3084 2119 3084 
Q 1678 3084 1418 2786 
Q 1159 2488 1159 1978 
L 1159 0 
L 581 0 
L 581 3500 
L 1159 3500 
L 1159 2956 
Q 1356 3278 1631 3431 
Q 1906 3584 2284 3584 
Q 2666 3584 2933 3390 
Q 3200 3197 3328 2828 
z
" transform="scale(0.015625)"/>
      <path id="DejaVuSans-62" d="M 3116 1747 
Q 3116 2381 2855 2742 
Q 2594 3103 2138 3103 
Q 1681 3103 1420 2742 
Q 1159 2381 1159 1747 
Q 1159 1113 1420 752 
Q 1681 391 2138 391 
Q 2594 391 2855 752 
Q 3116 1113 3116 1747 
z
M 1159 2969 
Q 1341 3281 1617 3432 
Q 1894 3584 2278 3584 
Q 2916 3584 3314 3078 
Q 3713 2572 3713 1747 
Q 3713 922 3314 415 
Q 2916 -91 2278 -91 
Q 1894 -91 1617 61 
Q 1341 213 1159 525 
L 1159 0 
L 581 0 
L 581 4863 
L 1159 4863 
L 1159 2969 
z
" transform="scale(0.015625)"/>
      <path id="DejaVuSans-69" d="M 603 3500 
L 1178 3500 
L 1178 0 
L 603 0 
L 603 3500 
z
M 603 4863 
L 1178 4863 
L 1178 4134 
L 603 4134 
L 603 4863 
z
" transform="scale(0.015625)"/>
      <path id="DejaVuSans-6e" d="M 3513 2113 
L 3513 0 
L 2938 0 
L 2938 2094 
Q 2938 2591 2744 2837 
Q 2550 3084 2163 3084 
Q 1697 3084 1428 2787 
Q 1159 2491 1159 1978 
L 1159 0 
L 581 0 
L 581 3500 
L 1159 3500 
L 1159 2956 
Q 1366 3272 1645 3428 
Q 1925 3584 2291 3584 
Q 2894 3584 3203 3211 
Q 3513 2838 3513 2113 
z
" transform="scale(0.015625)"/>
      <path id="DejaVuSans-64" d="M 2906 2969 
L 2906 4863 
L 3481 4863 
L 3481 0 
L 2906 0 
L 2906 525 
Q 2725 213 2448 61 
Q 2172 -91 1784 -91 
Q 1150 -91 751 415 
Q 353 922 353 1747 
Q 353 2572 751 3078 
Q 1150 3584 1784 3584 
Q 2172 3584 2448 3432 
Q 2725 3281 2906 2969 
z
M 947 1747 
Q 947 1113 1208 752 
Q 1469 391 1925 391 
Q 2381 391 2643 752 
Q 2906 1113 2906 1747 
Q 2906 2381 2643 2742 
Q 2381 3103 1925 3103 
Q 1469 3103 1208 2742 
Q 947 2381 947 1747 
z
" transform="scale(0.015625)"/>
     </defs>
     <use xlink:href="#DejaVuSans-43"/>
     <use xlink:href="#DejaVuSans-6f" transform="translate(69.824219 0)"/>
     <use xlink:href="#DejaVuSans-6d" transform="translate(131.005859 0)"/>
     <use xlink:href="#DejaVuSans-62" transform="translate(228.417969 0)"/>
     <use xlink:href="#DejaVuSans-69" transform="translate(291.894531 0)"/>
     <use xlink:href="#DejaVuSans-6e" transform="translate(319.677734 0)"/>
     <use xlink:href="#DejaVuSans-65" transform="translate(383.056641 0)"/>
     <use xlink:href="#DejaVuSans-64" transform="translate(444.580078 0)"/>
     <use xlink:href="#DejaVuSans-20" transform="translate(508.056641 0)"/>
     <use xlink:href="#DejaVuSans-54" transform="translate(539.84375 0)"/>
     <use xlink:href="#DejaVuSans-65" transform="translate(583.927734 0)"/>
     <use xlink:href="#DejaVuSans-73" transform="translate(645.451172 0)"/>
     <use xlink:href="#DejaVuSans-74" transform="translate(697.550781 0)"/>
     <use xlink:href="#DejaVuSans-20" transform="translate(736.759766 0)"/>
     <use xlink:href="#DejaVuSans-52" transform="translate(768.546875 0)"/>
     <use xlink:href="#DejaVuSans-65" transform="translate(833.529297 0)"/>
     <use xlink:href="#DejaVuSans-63" transform="translate(895.052734 0)"/>
     <use xlink:href="#DejaVuSans-61" transform="translate(950.033203 0)"/>
     <use xlink:href="#DejaVuSans-6c" transform="translate(1011.3125 0)"/>
     <use xlink:href="#DejaVuSans-6c" transform="translate(1039.095703 0)"/>
    </g>
   </g>
   <g id="legend_1">
    <g id="patch_7">
     <path d="M 636.08625 380.478125 
L 698.26125 380.478125 
Q 700.26125 380.478125 700.26125 378.478125 
L 700.26125 306.0875 
Q 700.26125 304.0875 698.26125 304.0875 
L 636.08625 304.0875 
Q 634.08625 304.0875 634.08625 306.0875 
L 634.08625 378.478125 
Q 634.08625 380.478125 636.08625 380.478125 
z
" style="fill: #ffffff; opacity: 0.8; stroke: #cccccc; stroke-linejoin: miter"/>
    </g>
    <g id="line2d_17">
     <path d="M 638.08625 312.185937 
L 648.08625 312.185937 
L 658.08625 312.185937 
" style="fill: none; stroke: #1f77b4; stroke-width: 1.5; stroke-linecap: square"/>
    </g>
    <g id="text_15">
     <!-- Fold 1 -->
     <g transform="translate(666.08625 315.685937) scale(0.1 -0.1)">
      <defs>
       <path id="DejaVuSans-46" d="M 628 4666 
L 3309 4666 
L 3309 4134 
L 1259 4134 
L 1259 2759 
L 3109 2759 
L 3109 2228 
L 1259 2228 
L 1259 0 
L 628 0 
L 628 4666 
z
" transform="scale(0.015625)"/>
      </defs>
      <use xlink:href="#DejaVuSans-46"/>
      <use xlink:href="#DejaVuSans-6f" transform="translate(53.894531 0)"/>
      <use xlink:href="#DejaVuSans-6c" transform="translate(115.076172 0)"/>
      <use xlink:href="#DejaVuSans-64" transform="translate(142.859375 0)"/>
      <use xlink:href="#DejaVuSans-20" transform="translate(206.335938 0)"/>
      <use xlink:href="#DejaVuSans-31" transform="translate(238.123047 0)"/>
     </g>
    </g>
    <g id="line2d_18">
     <path d="M 638.08625 326.864062 
L 648.08625 326.864062 
L 658.08625 326.864062 
" style="fill: none; stroke: #ff7f0e; stroke-width: 1.5; stroke-linecap: square"/>
    </g>
    <g id="text_16">
     <!-- Fold 2 -->
     <g transform="translate(666.08625 330.364062) scale(0.1 -0.1)">
      <use xlink:href="#DejaVuSans-46"/>
      <use xlink:href="#DejaVuSans-6f" transform="translate(53.894531 0)"/>
      <use xlink:href="#DejaVuSans-6c" transform="translate(115.076172 0)"/>
      <use xlink:href="#DejaVuSans-64" transform="translate(142.859375 0)"/>
      <use xlink:href="#DejaVuSans-20" transform="translate(206.335938 0)"/>
      <use xlink:href="#DejaVuSans-32" transform="translate(238.123047 0)"/>
     </g>
    </g>
    <g id="line2d_19">
     <path d="M 638.08625 341.542187 
L 648.08625 341.542187 
L 658.08625 341.542187 
" style="fill: none; stroke: #2ca02c; stroke-width: 1.5; stroke-linecap: square"/>
    </g>
    <g id="text_17">
     <!-- Fold 3 -->
     <g transform="translate(666.08625 345.042187) scale(0.1 -0.1)">
      <use xlink:href="#DejaVuSans-46"/>
      <use xlink:href="#DejaVuSans-6f" transform="translate(53.894531 0)"/>
      <use xlink:href="#DejaVuSans-6c" transform="translate(115.076172 0)"/>
      <use xlink:href="#DejaVuSans-64" transform="translate(142.859375 0)"/>
      <use xlink:href="#DejaVuSans-20" transform="translate(206.335938 0)"/>
      <use xlink:href="#DejaVuSans-33" transform="translate(238.123047 0)"/>
     </g>
    </g>
    <g id="line2d_20">
     <path d="M 638.08625 356.220312 
L 648.08625 356.220312 
L 658.08625 356.220312 
" style="fill: none; stroke: #d62728; stroke-width: 1.5; stroke-linecap: square"/>
    </g>
    <g id="text_18">
     <!-- Fold 4 -->
     <g transform="translate(666.08625 359.720312) scale(0.1 -0.1)">
      <use xlink:href="#DejaVuSans-46"/>
      <use xlink:href="#DejaVuSans-6f" transform="translate(53.894531 0)"/>
      <use xlink:href="#DejaVuSans-6c" transform="translate(115.076172 0)"/>
      <use xlink:href="#DejaVuSans-64" transform="translate(142.859375 0)"/>
      <use xlink:href="#DejaVuSans-20" transform="translate(206.335938 0)"/>
      <use xlink:href="#DejaVuSans-34" transform="translate(238.123047 0)"/>
     </g>
    </g>
    <g id="line2d_21">
     <path d="M 638.08625 370.898437 
L 648.08625 370.898437 
L 658.08625 370.898437 
" style="fill: none; stroke: #9467bd; stroke-width: 1.5; stroke-linecap: square"/>
    </g>
    <g id="text_19">
     <!-- Fold 5 -->
     <g transform="translate(666.08625 374.398437) scale(0.1 -0.1)">
      <use xlink:href="#DejaVuSans-46"/>
      <use xlink:href="#DejaVuSans-6f" transform="translate(53.894531 0)"/>
      <use xlink:href="#DejaVuSans-6c" transform="translate(115.076172 0)"/>
      <use xlink:href="#DejaVuSans-64" transform="translate(142.859375 0)"/>
      <use xlink:href="#DejaVuSans-20" transform="translate(206.335938 0)"/>
      <use xlink:href="#DejaVuSans-35" transform="translate(238.123047 0)"/>
     </g>
    </g>
   </g>
  </g>
 </g>
 <defs>
  <clipPath id="p2b4b1fd8bc">
   <rect x="43.78125" y="22.318125" width="661.48" height="363.16"/>
  </clipPath>
 </defs>
</svg>
