<?xml version="1.0" encoding="utf-8" standalone="no"?>
<!DOCTYPE svg PUBLIC "-//W3C//DTD SVG 1.1//EN"
  "http://www.w3.org/Graphics/SVG/1.1/DTD/svg11.dtd">
<svg xmlns:xlink="http://www.w3.org/1999/xlink" width="712.46125pt" height="423.034375pt" viewBox="0 0 712.46125 423.034375" xmlns="http://www.w3.org/2000/svg" version="1.1">
 <metadata>
  <rdf:RDF xmlns:dc="http://purl.org/dc/elements/1.1/" xmlns:cc="http://creativecommons.org/ns#" xmlns:rdf="http://www.w3.org/1999/02/22-rdf-syntax-ns#">
   <cc:Work>
    <dc:type rdf:resource="http://purl.org/dc/dcmitype/StillImage"/>
    <dc:date>2025-04-04T16:15:22.060523</dc:date>
    <dc:format>image/svg+xml</dc:format>
    <dc:creator>
     <cc:Agent>
      <dc:title>Matplotlib v3.10.1, https://matplotlib.org/</dc:title>
     </cc:Agent>
    </dc:creator>
   </cc:Work>
  </rdf:RDF>
 </metadata>
 <defs>
  <style type="text/css">*{stroke-linejoin: round; stroke-linecap: butt}</style>
 </defs>
 <g id="figure_1">
  <g id="patch_1">
   <path d="M 0 423.034375 
L 712.46125 423.034375 
L 712.46125 0 
L 0 0 
z
" style="fill: #ffffff"/>
  </g>
  <g id="axes_1">
   <g id="patch_2">
    <path d="M 43.78125 385.478125 
L 705.26125 385.478125 
L 705.26125 22.318125 
L 43.78125 22.318125 
z
" style="fill: #ffffff"/>
   </g>
   <g id="matplotlib.axis_1">
    <g id="xtick_1">
     <g id="line2d_1">
      <defs>
       <path id="m591565488c" d="M 0 0 
L 0 3.5 
" style="stroke: #000000; stroke-width: 0.8"/>
      </defs>
      <g>
       <use xlink:href="#m591565488c" x="67.774326" y="385.478125" style="stroke: #000000; stroke-width: 0.8"/>
      </g>
     </g>
     <g id="text_1">
      <!-- 0 -->
      <g transform="translate(64.593076 400.076562) scale(0.1 -0.1)">
       <defs>
        <path id="DejaVuSans-30" d="M 2034 4250 
Q 1547 4250 1301 3770 
Q 1056 3291 1056 2328 
Q 1056 1369 1301 889 
Q 1547 409 2034 409 
Q 2525 409 2770 889 
Q 3016 1369 3016 2328 
Q 3016 3291 2770 3770 
Q 2525 4250 2034 4250 
z
M 2034 4750 
Q 2819 4750 3233 4129 
Q 3647 3509 3647 2328 
Q 3647 1150 3233 529 
Q 2819 -91 2034 -91 
Q 1250 -91 836 529 
Q 422 1150 422 2328 
Q 422 3509 836 4129 
Q 1250 4750 2034 4750 
z
" transform="scale(0.015625)"/>
       </defs>
       <use xlink:href="#DejaVuSans-30"/>
      </g>
     </g>
    </g>
    <g id="xtick_2">
     <g id="line2d_2">
      <g>
       <use xlink:href="#m591565488c" x="189.258256" y="385.478125" style="stroke: #000000; stroke-width: 0.8"/>
      </g>
     </g>
     <g id="text_2">
      <!-- 20 -->
      <g transform="translate(182.895756 400.076562) scale(0.1 -0.1)">
       <defs>
        <path id="DejaVuSans-32" d="M 1228 531 
L 3431 531 
L 3431 0 
L 469 0 
L 469 531 
Q 828 903 1448 1529 
Q 2069 2156 2228 2338 
Q 2531 2678 2651 2914 
Q 2772 3150 2772 3378 
Q 2772 3750 2511 3984 
Q 2250 4219 1831 4219 
Q 1534 4219 1204 4116 
Q 875 4013 500 3803 
L 500 4441 
Q 881 4594 1212 4672 
Q 1544 4750 1819 4750 
Q 2544 4750 2975 4387 
Q 3406 4025 3406 3419 
Q 3406 3131 3298 2873 
Q 3191 2616 2906 2266 
Q 2828 2175 2409 1742 
Q 1991 1309 1228 531 
z
" transform="scale(0.015625)"/>
       </defs>
       <use xlink:href="#DejaVuSans-32"/>
       <use xlink:href="#DejaVuSans-30" transform="translate(63.623047 0)"/>
      </g>
     </g>
    </g>
    <g id="xtick_3">
     <g id="line2d_3">
      <g>
       <use xlink:href="#m591565488c" x="310.742187" y="385.478125" style="stroke: #000000; stroke-width: 0.8"/>
      </g>
     </g>
     <g id="text_3">
      <!-- 40 -->
      <g transform="translate(304.379687 400.076562) scale(0.1 -0.1)">
       <defs>
        <path id="DejaVuSans-34" d="M 2419 4116 
L 825 1625 
L 2419 1625 
L 2419 4116 
z
M 2253 4666 
L 3047 4666 
L 3047 1625 
L 3713 1625 
L 3713 1100 
L 3047 1100 
L 3047 0 
L 2419 0 
L 2419 1100 
L 313 1100 
L 313 1709 
L 2253 4666 
z
" transform="scale(0.015625)"/>
       </defs>
       <use xlink:href="#DejaVuSans-34"/>
       <use xlink:href="#DejaVuSans-30" transform="translate(63.623047 0)"/>
      </g>
     </g>
    </g>
    <g id="xtick_4">
     <g id="line2d_4">
      <g>
       <use xlink:href="#m591565488c" x="432.226117" y="385.478125" style="stroke: #000000; stroke-width: 0.8"/>
      </g>
     </g>
     <g id="text_4">
      <!-- 60 -->
      <g transform="translate(425.863617 400.076562) scale(0.1 -0.1)">
       <defs>
        <path id="DejaVuSans-36" d="M 2113 2584 
Q 1688 2584 1439 2293 
Q 1191 2003 1191 1497 
Q 1191 994 1439 701 
Q 1688 409 2113 409 
Q 2538 409 2786 701 
Q 3034 994 3034 1497 
Q 3034 2003 2786 2293 
Q 2538 2584 2113 2584 
z
M 3366 4563 
L 3366 3988 
Q 3128 4100 2886 4159 
Q 2644 4219 2406 4219 
Q 1781 4219 1451 3797 
Q 1122 3375 1075 2522 
Q 1259 2794 1537 2939 
Q 1816 3084 2150 3084 
Q 2853 3084 3261 2657 
Q 3669 2231 3669 1497 
Q 3669 778 3244 343 
Q 2819 -91 2113 -91 
Q 1303 -91 875 529 
Q 447 1150 447 2328 
Q 447 3434 972 4092 
Q 1497 4750 2381 4750 
Q 2619 4750 2861 4703 
Q 3103 4656 3366 4563 
z
" transform="scale(0.015625)"/>
       </defs>
       <use xlink:href="#DejaVuSans-36"/>
       <use xlink:href="#DejaVuSans-30" transform="translate(63.623047 0)"/>
      </g>
     </g>
    </g>
    <g id="xtick_5">
     <g id="line2d_5">
      <g>
       <use xlink:href="#m591565488c" x="553.710047" y="385.478125" style="stroke: #000000; stroke-width: 0.8"/>
      </g>
     </g>
     <g id="text_5">
      <!-- 80 -->
      <g transform="translate(547.347547 400.076562) scale(0.1 -0.1)">
       <defs>
        <path id="DejaVuSans-38" d="M 2034 2216 
Q 1584 2216 1326 1975 
Q 1069 1734 1069 1313 
Q 1069 891 1326 650 
Q 1584 409 2034 409 
Q 2484 409 2743 651 
Q 3003 894 3003 1313 
Q 3003 1734 2745 1975 
Q 2488 2216 2034 2216 
z
M 1403 2484 
Q 997 2584 770 2862 
Q 544 3141 544 3541 
Q 544 4100 942 4425 
Q 1341 4750 2034 4750 
Q 2731 4750 3128 4425 
Q 3525 4100 3525 3541 
Q 3525 3141 3298 2862 
Q 3072 2584 2669 2484 
Q 3125 2378 3379 2068 
Q 3634 1759 3634 1313 
Q 3634 634 3220 271 
Q 2806 -91 2034 -91 
Q 1263 -91 848 271 
Q 434 634 434 1313 
Q 434 1759 690 2068 
Q 947 2378 1403 2484 
z
M 1172 3481 
Q 1172 3119 1398 2916 
Q 1625 2713 2034 2713 
Q 2441 2713 2670 2916 
Q 2900 3119 2900 3481 
Q 2900 3844 2670 4047 
Q 2441 4250 2034 4250 
Q 1625 4250 1398 4047 
Q 1172 3844 1172 3481 
z
" transform="scale(0.015625)"/>
       </defs>
       <use xlink:href="#DejaVuSans-38"/>
       <use xlink:href="#DejaVuSans-30" transform="translate(63.623047 0)"/>
      </g>
     </g>
    </g>
    <g id="xtick_6">
     <g id="line2d_6">
      <g>
       <use xlink:href="#m591565488c" x="675.193977" y="385.478125" style="stroke: #000000; stroke-width: 0.8"/>
      </g>
     </g>
     <g id="text_6">
      <!-- 100 -->
      <g transform="translate(665.650227 400.076562) scale(0.1 -0.1)">
       <defs>
        <path id="DejaVuSans-31" d="M 794 531 
L 1825 531 
L 1825 4091 
L 703 3866 
L 703 4441 
L 1819 4666 
L 2450 4666 
L 2450 531 
L 3481 531 
L 3481 0 
L 794 0 
L 794 531 
z
" transform="scale(0.015625)"/>
       </defs>
       <use xlink:href="#DejaVuSans-31"/>
       <use xlink:href="#DejaVuSans-30" transform="translate(63.623047 0)"/>
       <use xlink:href="#DejaVuSans-30" transform="translate(127.246094 0)"/>
      </g>
     </g>
    </g>
    <g id="text_7">
     <!-- Epoch -->
     <g transform="translate(359.210312 413.754687) scale(0.1 -0.1)">
      <defs>
       <path id="DejaVuSans-45" d="M 628 4666 
L 3578 4666 
L 3578 4134 
L 1259 4134 
L 1259 2753 
L 3481 2753 
L 3481 2222 
L 1259 2222 
L 1259 531 
L 3634 531 
L 3634 0 
L 628 0 
L 628 4666 
z
" transform="scale(0.015625)"/>
       <path id="DejaVuSans-70" d="M 1159 525 
L 1159 -1331 
L 581 -1331 
L 581 3500 
L 1159 3500 
L 1159 2969 
Q 1341 3281 1617 3432 
Q 1894 3584 2278 3584 
Q 2916 3584 3314 3078 
Q 3713 2572 3713 1747 
Q 3713 922 3314 415 
Q 2916 -91 2278 -91 
Q 1894 -91 1617 61 
Q 1341 213 1159 525 
z
M 3116 1747 
Q 3116 2381 2855 2742 
Q 2594 3103 2138 3103 
Q 1681 3103 1420 2742 
Q 1159 2381 1159 1747 
Q 1159 1113 1420 752 
Q 1681 391 2138 391 
Q 2594 391 2855 752 
Q 3116 1113 3116 1747 
z
" transform="scale(0.015625)"/>
       <path id="DejaVuSans-6f" d="M 1959 3097 
Q 1497 3097 1228 2736 
Q 959 2375 959 1747 
Q 959 1119 1226 758 
Q 1494 397 1959 397 
Q 2419 397 2687 759 
Q 2956 1122 2956 1747 
Q 2956 2369 2687 2733 
Q 2419 3097 1959 3097 
z
M 1959 3584 
Q 2709 3584 3137 3096 
Q 3566 2609 3566 1747 
Q 3566 888 3137 398 
Q 2709 -91 1959 -91 
Q 1206 -91 779 398 
Q 353 888 353 1747 
Q 353 2609 779 3096 
Q 1206 3584 1959 3584 
z
" transform="scale(0.015625)"/>
       <path id="DejaVuSans-63" d="M 3122 3366 
L 3122 2828 
Q 2878 2963 2633 3030 
Q 2388 3097 2138 3097 
Q 1578 3097 1268 2742 
Q 959 2388 959 1747 
Q 959 1106 1268 751 
Q 1578 397 2138 397 
Q 2388 397 2633 464 
Q 2878 531 3122 666 
L 3122 134 
Q 2881 22 2623 -34 
Q 2366 -91 2075 -91 
Q 1284 -91 818 406 
Q 353 903 353 1747 
Q 353 2603 823 3093 
Q 1294 3584 2113 3584 
Q 2378 3584 2631 3529 
Q 2884 3475 3122 3366 
z
" transform="scale(0.015625)"/>
       <path id="DejaVuSans-68" d="M 3513 2113 
L 3513 0 
L 2938 0 
L 2938 2094 
Q 2938 2591 2744 2837 
Q 2550 3084 2163 3084 
Q 1697 3084 1428 2787 
Q 1159 2491 1159 1978 
L 1159 0 
L 581 0 
L 581 4863 
L 1159 4863 
L 1159 2956 
Q 1366 3272 1645 3428 
Q 1925 3584 2291 3584 
Q 2894 3584 3203 3211 
Q 3513 2838 3513 2113 
z
" transform="scale(0.015625)"/>
      </defs>
      <use xlink:href="#DejaVuSans-45"/>
      <use xlink:href="#DejaVuSans-70" transform="translate(63.183594 0)"/>
      <use xlink:href="#DejaVuSans-6f" transform="translate(126.660156 0)"/>
      <use xlink:href="#DejaVuSans-63" transform="translate(187.841797 0)"/>
      <use xlink:href="#DejaVuSans-68" transform="translate(242.822266 0)"/>
     </g>
    </g>
   </g>
   <g id="matplotlib.axis_2">
    <g id="ytick_1">
     <g id="line2d_7">
      <defs>
       <path id="mcfbdb52c98" d="M 0 0 
L -3.5 0 
" style="stroke: #000000; stroke-width: 0.8"/>
      </defs>
      <g>
       <use xlink:href="#mcfbdb52c98" x="43.78125" y="377.445277" style="stroke: #000000; stroke-width: 0.8"/>
      </g>
     </g>
     <g id="text_8">
      <!-- 0.0 -->
      <g transform="translate(20.878125 381.244495) scale(0.1 -0.1)">
       <defs>
        <path id="DejaVuSans-2e" d="M 684 794 
L 1344 794 
L 1344 0 
L 684 0 
L 684 794 
z
" transform="scale(0.015625)"/>
       </defs>
       <use xlink:href="#DejaVuSans-30"/>
       <use xlink:href="#DejaVuSans-2e" transform="translate(63.623047 0)"/>
       <use xlink:href="#DejaVuSans-30" transform="translate(95.410156 0)"/>
      </g>
     </g>
    </g>
    <g id="ytick_2">
     <g id="line2d_8">
      <g>
       <use xlink:href="#mcfbdb52c98" x="43.78125" y="317.765252" style="stroke: #000000; stroke-width: 0.8"/>
      </g>
     </g>
     <g id="text_9">
      <!-- 0.2 -->
      <g transform="translate(20.878125 321.564471) scale(0.1 -0.1)">
       <use xlink:href="#DejaVuSans-30"/>
       <use xlink:href="#DejaVuSans-2e" transform="translate(63.623047 0)"/>
       <use xlink:href="#DejaVuSans-32" transform="translate(95.410156 0)"/>
      </g>
     </g>
    </g>
    <g id="ytick_3">
     <g id="line2d_9">
      <g>
       <use xlink:href="#mcfbdb52c98" x="43.78125" y="258.085227" style="stroke: #000000; stroke-width: 0.8"/>
      </g>
     </g>
     <g id="text_10">
      <!-- 0.4 -->
      <g transform="translate(20.878125 261.884446) scale(0.1 -0.1)">
       <use xlink:href="#DejaVuSans-30"/>
       <use xlink:href="#DejaVuSans-2e" transform="translate(63.623047 0)"/>
       <use xlink:href="#DejaVuSans-34" transform="translate(95.410156 0)"/>
      </g>
     </g>
    </g>
    <g id="ytick_4">
     <g id="line2d_10">
      <g>
       <use xlink:href="#mcfbdb52c98" x="43.78125" y="198.405203" style="stroke: #000000; stroke-width: 0.8"/>
      </g>
     </g>
     <g id="text_11">
      <!-- 0.6 -->
      <g transform="translate(20.878125 202.204421) scale(0.1 -0.1)">
       <use xlink:href="#DejaVuSans-30"/>
       <use xlink:href="#DejaVuSans-2e" transform="translate(63.623047 0)"/>
       <use xlink:href="#DejaVuSans-36" transform="translate(95.410156 0)"/>
      </g>
     </g>
    </g>
    <g id="ytick_5">
     <g id="line2d_11">
      <g>
       <use xlink:href="#mcfbdb52c98" x="43.78125" y="138.725178" style="stroke: #000000; stroke-width: 0.8"/>
      </g>
     </g>
     <g id="text_12">
      <!-- 0.8 -->
      <g transform="translate(20.878125 142.524397) scale(0.1 -0.1)">
       <use xlink:href="#DejaVuSans-30"/>
       <use xlink:href="#DejaVuSans-2e" transform="translate(63.623047 0)"/>
       <use xlink:href="#DejaVuSans-38" transform="translate(95.410156 0)"/>
      </g>
     </g>
    </g>
    <g id="ytick_6">
     <g id="line2d_12">
      <g>
       <use xlink:href="#mcfbdb52c98" x="43.78125" y="79.045153" style="stroke: #000000; stroke-width: 0.8"/>
      </g>
     </g>
     <g id="text_13">
      <!-- 1.0 -->
      <g transform="translate(20.878125 82.844372) scale(0.1 -0.1)">
       <use xlink:href="#DejaVuSans-31"/>
       <use xlink:href="#DejaVuSans-2e" transform="translate(63.623047 0)"/>
       <use xlink:href="#DejaVuSans-30" transform="translate(95.410156 0)"/>
      </g>
     </g>
    </g>
    <g id="text_14">
     <!-- Train Loss -->
     <g transform="translate(14.798438 228.448125) rotate(-90) scale(0.1 -0.1)">
      <defs>
       <path id="DejaVuSans-54" d="M -19 4666 
L 3928 4666 
L 3928 4134 
L 2272 4134 
L 2272 0 
L 1638 0 
L 1638 4134 
L -19 4134 
L -19 4666 
z
" transform="scale(0.015625)"/>
       <path id="DejaVuSans-72" d="M 2631 2963 
Q 2534 3019 2420 3045 
Q 2306 3072 2169 3072 
Q 1681 3072 1420 2755 
Q 1159 2438 1159 1844 
L 1159 0 
L 581 0 
L 581 3500 
L 1159 3500 
L 1159 2956 
Q 1341 3275 1631 3429 
Q 1922 3584 2338 3584 
Q 2397 3584 2469 3576 
Q 2541 3569 2628 3553 
L 2631 2963 
z
" transform="scale(0.015625)"/>
       <path id="DejaVuSans-61" d="M 2194 1759 
Q 1497 1759 1228 1600 
Q 959 1441 959 1056 
Q 959 750 1161 570 
Q 1363 391 1709 391 
Q 2188 391 2477 730 
Q 2766 1069 2766 1631 
L 2766 1759 
L 2194 1759 
z
M 3341 1997 
L 3341 0 
L 2766 0 
L 2766 531 
Q 2569 213 2275 61 
Q 1981 -91 1556 -91 
Q 1019 -91 701 211 
Q 384 513 384 1019 
Q 384 1609 779 1909 
Q 1175 2209 1959 2209 
L 2766 2209 
L 2766 2266 
Q 2766 2663 2505 2880 
Q 2244 3097 1772 3097 
Q 1472 3097 1187 3025 
Q 903 2953 641 2809 
L 641 3341 
Q 956 3463 1253 3523 
Q 1550 3584 1831 3584 
Q 2591 3584 2966 3190 
Q 3341 2797 3341 1997 
z
" transform="scale(0.015625)"/>
       <path id="DejaVuSans-69" d="M 603 3500 
L 1178 3500 
L 1178 0 
L 603 0 
L 603 3500 
z
M 603 4863 
L 1178 4863 
L 1178 4134 
L 603 4134 
L 603 4863 
z
" transform="scale(0.015625)"/>
       <path id="DejaVuSans-6e" d="M 3513 2113 
L 3513 0 
L 2938 0 
L 2938 2094 
Q 2938 2591 2744 2837 
Q 2550 3084 2163 3084 
Q 1697 3084 1428 2787 
Q 1159 2491 1159 1978 
L 1159 0 
L 581 0 
L 581 3500 
L 1159 3500 
L 1159 2956 
Q 1366 3272 1645 3428 
Q 1925 3584 2291 3584 
Q 2894 3584 3203 3211 
Q 3513 2838 3513 2113 
z
" transform="scale(0.015625)"/>
       <path id="DejaVuSans-20" transform="scale(0.015625)"/>
       <path id="DejaVuSans-4c" d="M 628 4666 
L 1259 4666 
L 1259 531 
L 3531 531 
L 3531 0 
L 628 0 
L 628 4666 
z
" transform="scale(0.015625)"/>
       <path id="DejaVuSans-73" d="M 2834 3397 
L 2834 2853 
Q 2591 2978 2328 3040 
Q 2066 3103 1784 3103 
Q 1356 3103 1142 2972 
Q 928 2841 928 2578 
Q 928 2378 1081 2264 
Q 1234 2150 1697 2047 
L 1894 2003 
Q 2506 1872 2764 1633 
Q 3022 1394 3022 966 
Q 3022 478 2636 193 
Q 2250 -91 1575 -91 
Q 1294 -91 989 -36 
Q 684 19 347 128 
L 347 722 
Q 666 556 975 473 
Q 1284 391 1588 391 
Q 1994 391 2212 530 
Q 2431 669 2431 922 
Q 2431 1156 2273 1281 
Q 2116 1406 1581 1522 
L 1381 1569 
Q 847 1681 609 1914 
Q 372 2147 372 2553 
Q 372 3047 722 3315 
Q 1072 3584 1716 3584 
Q 2034 3584 2315 3537 
Q 2597 3491 2834 3397 
z
" transform="scale(0.015625)"/>
      </defs>
      <use xlink:href="#DejaVuSans-54"/>
      <use xlink:href="#DejaVuSans-72" transform="translate(46.333984 0)"/>
      <use xlink:href="#DejaVuSans-61" transform="translate(87.447266 0)"/>
      <use xlink:href="#DejaVuSans-69" transform="translate(148.726562 0)"/>
      <use xlink:href="#DejaVuSans-6e" transform="translate(176.509766 0)"/>
      <use xlink:href="#DejaVuSans-20" transform="translate(239.888672 0)"/>
      <use xlink:href="#DejaVuSans-4c" transform="translate(271.675781 0)"/>
      <use xlink:href="#DejaVuSans-6f" transform="translate(325.638672 0)"/>
      <use xlink:href="#DejaVuSans-73" transform="translate(386.820312 0)"/>
      <use xlink:href="#DejaVuSans-73" transform="translate(438.919922 0)"/>
     </g>
    </g>
   </g>
   <g id="line2d_13">
    <path d="M 73.848523 51.907337 
L 79.922719 182.182958 
L 85.996916 211.520961 
L 92.071112 224.722632 
L 98.145309 246.3149 
L 104.219505 265.302801 
L 110.293702 277.083521 
L 116.367898 286.993441 
L 122.442095 289.932536 
L 128.516291 327.237833 
L 134.590488 352.210389 
L 140.664684 351.734986 
L 146.738881 341.883447 
L 152.813077 331.116678 
L 158.887274 358.496678 
L 164.96147 345.075305 
L 171.035667 350.34874 
L 177.109863 354.235218 
L 183.18406 360.156426 
L 189.258256 354.316542 
L 195.332453 360.959687 
L 201.406649 362.002079 
L 207.480846 362.455708 
L 213.555042 362.552959 
L 219.629239 363.654956 
L 225.703435 364.416291 
L 231.777632 362.473263 
L 237.851829 363.545032 
L 243.926025 364.271875 
L 250.000222 364.265323 
L 256.074418 357.209334 
L 262.148615 362.604226 
L 268.222811 366.182399 
L 274.297008 364.668558 
L 280.371204 365.929862 
L 286.445401 363.246551 
L 292.519597 365.412593 
L 298.593794 364.161987 
L 304.66799 366.572172 
L 310.742187 365.48184 
L 316.816383 364.326499 
L 322.89058 365.794453 
L 328.964776 364.537953 
L 335.038973 363.931118 
L 341.113169 364.330837 
L 347.187366 365.905292 
L 353.261562 365.351123 
L 359.335759 366.577215 
L 365.409955 365.32561 
L 371.484152 365.231312 
L 377.558348 364.940761 
L 383.632545 363.961889 
L 389.706741 367.671364 
L 395.780938 364.769852 
L 401.855134 365.509087 
L 407.929331 366.565632 
L 414.003527 364.904638 
L 420.077724 363.946711 
L 426.15192 363.989602 
L 432.226117 366.61388 
L 438.300313 367.779361 
L 444.37451 366.986744 
L 450.448706 366.508769 
L 456.522903 358.474383 
L 462.597099 361.051685 
L 468.671296 364.657588 
L 474.745492 363.968816 
L 480.819689 364.5297 
L 486.893885 364.979262 
L 492.968082 366.097343 
L 499.042278 366.554369 
L 505.116475 364.623135 
L 511.190671 366.364769 
L 517.264868 364.786855 
L 523.339065 365.467635 
L 529.413261 365.61962 
L 535.487458 365.666204 
L 541.561654 365.920395 
L 547.635851 365.408344 
L 553.710047 364.94194 
L 559.784244 367.585142 
L 565.85844 365.484136 
L 571.932637 367.202044 
L 578.006833 366.620718 
L 584.08103 366.268283 
L 590.155226 366.728414 
L 596.229423 366.721983 
L 602.303619 366.158584 
L 608.377816 366.921114 
L 614.452012 366.733685 
L 620.526209 367.673054 
L 626.600405 368.458575 
L 632.674602 367.586763 
L 638.748798 367.684776 
L 644.822995 367.933942 
L 650.897191 367.376266 
L 656.971388 367.619586 
L 663.045584 367.914701 
L 669.119781 367.139375 
L 675.193977 368.28875 
" clip-path="url(#p9f073815f2)" style="fill: none; stroke: #1f77b4; stroke-width: 1.5; stroke-linecap: square"/>
   </g>
   <g id="line2d_14">
    <path d="M 73.848523 41.969569 
L 79.922719 193.986638 
L 85.996916 212.910487 
L 92.071112 217.531958 
L 98.145309 219.236106 
L 104.219505 221.309189 
L 110.293702 221.932223 
L 116.367898 221.327864 
L 122.442095 224.716453 
L 128.516291 223.289836 
L 134.590488 229.778507 
L 140.664684 252.411019 
L 146.738881 256.345816 
L 152.813077 280.026446 
L 158.887274 287.37168 
L 164.96147 284.100093 
L 171.035667 291.450622 
L 177.109863 294.363977 
L 183.18406 294.32912 
L 189.258256 298.379186 
L 195.332453 294.604872 
L 201.406649 297.563918 
L 207.480846 296.325466 
L 213.555042 300.401862 
L 219.629239 297.02271 
L 225.703435 302.902978 
L 231.777632 309.334615 
L 237.851829 331.38349 
L 243.926025 341.874197 
L 250.000222 350.652876 
L 256.074418 297.725434 
L 262.148615 266.439813 
L 268.222811 295.617901 
L 274.297008 297.436819 
L 280.371204 300.254488 
L 286.445401 302.165343 
L 292.519597 300.613927 
L 298.593794 301.534883 
L 304.66799 304.395997 
L 310.742187 312.442994 
L 316.816383 337.052057 
L 322.89058 347.892892 
L 328.964776 346.120329 
L 335.038973 342.1641 
L 341.113169 343.70336 
L 347.187366 336.921495 
L 353.261562 348.767222 
L 359.335759 354.243572 
L 365.409955 353.01406 
L 371.484152 359.263767 
L 377.558348 359.691251 
L 383.632545 353.903358 
L 389.706741 357.190275 
L 395.780938 360.830287 
L 401.855134 351.677314 
L 407.929331 355.351468 
L 414.003527 361.433365 
L 420.077724 362.139441 
L 426.15192 361.164579 
L 432.226117 362.951879 
L 438.300313 362.165854 
L 444.37451 363.929884 
L 450.448706 363.421617 
L 456.522903 363.895011 
L 462.597099 361.695356 
L 468.671296 356.742179 
L 474.745492 363.25522 
L 480.819689 364.801194 
L 486.893885 364.372416 
L 492.968082 363.195302 
L 499.042278 365.272775 
L 505.116475 364.053915 
L 511.190671 364.539712 
L 517.264868 356.611191 
L 523.339065 362.01899 
L 529.413261 365.147964 
L 535.487458 365.159975 
L 541.561654 365.495363 
L 547.635851 366.409723 
L 553.710047 364.769444 
L 559.784244 365.272454 
L 565.85844 365.272045 
L 571.932637 364.761412 
L 578.006833 366.801584 
L 584.08103 366.137057 
L 590.155226 366.014788 
L 596.229423 365.647199 
L 602.303619 365.444827 
L 608.377816 367.61195 
L 614.452012 363.34979 
L 620.526209 361.693992 
L 626.600405 355.912524 
L 632.674602 294.540419 
L 638.748798 329.179293 
L 644.822995 347.523961 
L 650.897191 348.718659 
L 656.971388 355.967263 
L 663.045584 356.046893 
L 669.119781 351.829298 
L 675.193977 351.487274 
" clip-path="url(#p9f073815f2)" style="fill: none; stroke: #ff7f0e; stroke-width: 1.5; stroke-linecap: square"/>
   </g>
   <g id="line2d_15">
    <path d="M 73.848523 40.468163 
L 79.922719 199.755826 
L 85.996916 215.960758 
L 92.071112 214.307552 
L 98.145309 223.684061 
L 104.219505 222.940482 
L 110.293702 221.977801 
L 116.367898 223.183084 
L 122.442095 229.98613 
L 128.516291 261.952116 
L 134.590488 276.996644 
L 140.664684 305.969003 
L 146.738881 317.227063 
L 152.813077 325.373926 
L 158.887274 329.632118 
L 164.96147 309.540775 
L 171.035667 335.188511 
L 177.109863 337.354889 
L 183.18406 346.456788 
L 189.258256 352.167167 
L 195.332453 353.239138 
L 201.406649 355.950843 
L 207.480846 327.908448 
L 213.555042 354.013391 
L 219.629239 358.610508 
L 225.703435 359.268527 
L 231.777632 360.385614 
L 237.851829 362.15349 
L 243.926025 361.544645 
L 250.000222 361.998562 
L 256.074418 362.482931 
L 262.148615 362.11266 
L 268.222811 362.613026 
L 274.297008 365.567571 
L 280.371204 363.781179 
L 286.445401 364.061287 
L 292.519597 363.138007 
L 298.593794 362.843542 
L 304.66799 362.526008 
L 310.742187 363.077378 
L 316.816383 364.894372 
L 322.89058 366.521255 
L 328.964776 365.687227 
L 335.038973 365.066277 
L 341.113169 366.132617 
L 347.187366 365.595203 
L 353.261562 366.369676 
L 359.335759 365.096673 
L 365.409955 367.464075 
L 371.484152 365.214687 
L 377.558348 366.830444 
L 383.632545 365.075649 
L 389.706741 366.731369 
L 395.780938 366.39268 
L 401.855134 365.257787 
L 407.929331 365.831136 
L 414.003527 365.688442 
L 420.077724 366.596806 
L 426.15192 324.379312 
L 432.226117 345.091112 
L 438.300313 363.687575 
L 444.37451 362.20909 
L 450.448706 365.596795 
L 456.522903 366.059427 
L 462.597099 366.617482 
L 468.671296 366.660917 
L 474.745492 365.629978 
L 480.819689 366.84686 
L 486.893885 367.264677 
L 492.968082 366.219488 
L 499.042278 367.128031 
L 505.116475 367.439313 
L 511.190671 367.420719 
L 517.264868 367.203379 
L 523.339065 366.503385 
L 529.413261 366.579983 
L 535.487458 349.29549 
L 541.561654 366.245537 
L 547.635851 366.516983 
L 553.710047 366.915466 
L 559.784244 366.844757 
L 565.85844 366.496674 
L 571.932637 367.620753 
L 578.006833 362.522514 
L 584.08103 360.002179 
L 590.155226 366.269355 
L 596.229423 367.867154 
L 602.303619 368.874308 
L 608.377816 367.894441 
L 614.452012 368.592867 
L 620.526209 366.380753 
L 626.600405 364.814821 
L 632.674602 367.730497 
L 638.748798 367.744553 
L 644.822995 367.923042 
L 650.897191 368.970852 
L 656.971388 367.789219 
L 663.045584 368.76755 
L 669.119781 366.915967 
L 675.193977 366.912593 
" clip-path="url(#p9f073815f2)" style="fill: none; stroke: #2ca02c; stroke-width: 1.5; stroke-linecap: square"/>
   </g>
   <g id="line2d_16">
    <path d="M 73.848523 56.77517 
L 79.922719 194.502904 
L 85.996916 216.319326 
L 92.071112 218.000978 
L 98.145309 218.886671 
L 104.219505 232.995521 
L 110.293702 278.140622 
L 116.367898 303.839409 
L 122.442095 323.066669 
L 128.516291 331.466113 
L 134.590488 312.439296 
L 140.664684 336.12594 
L 146.738881 353.308321 
L 152.813077 355.737658 
L 158.887274 359.545727 
L 164.96147 359.165486 
L 171.035667 360.90122 
L 177.109863 361.74794 
L 183.18406 362.182088 
L 189.258256 363.491748 
L 195.332453 363.241582 
L 201.406649 363.83009 
L 207.480846 363.439706 
L 213.555042 363.327275 
L 219.629239 359.431975 
L 225.703435 266.201154 
L 231.777632 284.334638 
L 237.851829 289.597903 
L 243.926025 290.868401 
L 250.000222 308.449238 
L 256.074418 295.638178 
L 262.148615 329.731294 
L 268.222811 309.913912 
L 274.297008 320.210033 
L 280.371204 346.043415 
L 286.445401 355.923378 
L 292.519597 359.445035 
L 298.593794 358.696618 
L 304.66799 361.625022 
L 310.742187 361.772553 
L 316.816383 362.115556 
L 322.89058 361.736859 
L 328.964776 361.693254 
L 335.038973 362.882149 
L 341.113169 362.470509 
L 347.187366 363.377182 
L 353.261562 361.08366 
L 359.335759 351.087777 
L 365.409955 359.63482 
L 371.484152 362.157073 
L 377.558348 362.253886 
L 383.632545 364.327503 
L 389.706741 362.678767 
L 395.780938 364.200035 
L 401.855134 363.807641 
L 407.929331 362.504498 
L 414.003527 363.546636 
L 420.077724 363.673062 
L 426.15192 363.240289 
L 432.226117 363.987041 
L 438.300313 364.123282 
L 444.37451 363.924661 
L 450.448706 364.140405 
L 456.522903 363.874126 
L 462.597099 365.430137 
L 468.671296 363.896619 
L 474.745492 363.873652 
L 480.819689 364.153761 
L 486.893885 363.641008 
L 492.968082 362.063014 
L 499.042278 364.327148 
L 505.116475 363.576197 
L 511.190671 361.708065 
L 517.264868 363.360671 
L 523.339065 365.138508 
L 529.413261 364.03879 
L 535.487458 365.61074 
L 541.561654 364.127916 
L 547.635851 365.292978 
L 553.710047 363.656743 
L 559.784244 364.61981 
L 565.85844 364.771426 
L 571.932637 364.478125 
L 578.006833 363.837315 
L 584.08103 364.498274 
L 590.155226 364.901577 
L 596.229423 364.446226 
L 602.303619 364.146832 
L 608.377816 364.419584 
L 614.452012 365.485956 
L 620.526209 363.882007 
L 626.600405 363.222902 
L 632.674602 361.671965 
L 638.748798 340.789335 
L 644.822995 364.516248 
L 650.897191 365.207605 
L 656.971388 364.861329 
L 663.045584 364.898748 
L 669.119781 359.68667 
L 675.193977 362.367521 
" clip-path="url(#p9f073815f2)" style="fill: none; stroke: #d62728; stroke-width: 1.5; stroke-linecap: square"/>
   </g>
   <g id="line2d_17">
    <path d="M 73.848523 38.825398 
L 79.922719 187.329943 
L 85.996916 212.117424 
L 92.071112 214.695753 
L 98.145309 219.058721 
L 104.219505 227.502639 
L 110.293702 256.612165 
L 116.367898 266.396594 
L 122.442095 287.259225 
L 128.516291 284.526227 
L 134.590488 294.996838 
L 140.664684 290.996513 
L 146.738881 290.846092 
L 152.813077 289.279146 
L 158.887274 293.781474 
L 164.96147 291.954236 
L 171.035667 293.817655 
L 177.109863 284.867735 
L 183.18406 288.162424 
L 189.258256 291.830479 
L 195.332453 292.790822 
L 201.406649 300.967162 
L 207.480846 303.507266 
L 213.555042 301.914619 
L 219.629239 302.076119 
L 225.703435 305.744231 
L 231.777632 304.191199 
L 237.851829 306.481205 
L 243.926025 305.723715 
L 250.000222 302.835701 
L 256.074418 307.695811 
L 262.148615 307.322583 
L 268.222811 304.372937 
L 274.297008 318.028172 
L 280.371204 318.678195 
L 286.445401 303.030878 
L 292.519597 307.175378 
L 298.593794 310.508923 
L 304.66799 310.288109 
L 310.742187 312.970658 
L 316.816383 326.971954 
L 322.89058 347.317905 
L 328.964776 347.76978 
L 335.038973 355.763287 
L 341.113169 360.696721 
L 347.187366 360.929988 
L 353.261562 356.792261 
L 359.335759 361.719133 
L 365.409955 350.911805 
L 371.484152 356.741567 
L 377.558348 362.912111 
L 383.632545 355.390506 
L 389.706741 353.667712 
L 395.780938 362.482169 
L 401.855134 363.253411 
L 407.929331 354.228198 
L 414.003527 362.930079 
L 420.077724 364.199401 
L 426.15192 364.226924 
L 432.226117 364.034075 
L 438.300313 364.930026 
L 444.37451 366.014398 
L 450.448706 365.886197 
L 456.522903 367.094842 
L 462.597099 366.905783 
L 468.671296 366.001754 
L 474.745492 366.809616 
L 480.819689 365.939198 
L 486.893885 367.75364 
L 492.968082 367.442731 
L 499.042278 365.905835 
L 505.116475 366.508093 
L 511.190671 367.294113 
L 517.264868 367.360541 
L 523.339065 367.658815 
L 529.413261 366.791199 
L 535.487458 366.78774 
L 541.561654 366.851607 
L 547.635851 366.724273 
L 553.710047 366.317929 
L 559.784244 367.544354 
L 565.85844 367.371915 
L 571.932637 365.964618 
L 578.006833 366.67207 
L 584.08103 366.813839 
L 590.155226 367.311954 
L 596.229423 366.832788 
L 602.303619 366.244698 
L 608.377816 368.796793 
L 614.452012 367.37633 
L 620.526209 366.807617 
L 626.600405 367.187531 
L 632.674602 367.837365 
L 638.748798 367.794853 
L 644.822995 367.600072 
L 650.897191 368.102063 
L 656.971388 367.936839 
L 663.045584 366.740216 
L 669.119781 367.905685 
L 675.193977 368.35911 
" clip-path="url(#p9f073815f2)" style="fill: none; stroke: #9467bd; stroke-width: 1.5; stroke-linecap: square"/>
   </g>
   <g id="patch_3">
    <path d="M 43.78125 385.478125 
L 43.78125 22.318125 
" style="fill: none; stroke: #000000; stroke-width: 0.8; stroke-linejoin: miter; stroke-linecap: square"/>
   </g>
   <g id="patch_4">
    <path d="M 705.26125 385.478125 
L 705.26125 22.318125 
" style="fill: none; stroke: #000000; stroke-width: 0.8; stroke-linejoin: miter; stroke-linecap: square"/>
   </g>
   <g id="patch_5">
    <path d="M 43.78125 385.478125 
L 705.26125 385.478125 
" style="fill: none; stroke: #000000; stroke-width: 0.8; stroke-linejoin: miter; stroke-linecap: square"/>
   </g>
   <g id="patch_6">
    <path d="M 43.78125 22.318125 
L 705.26125 22.318125 
" style="fill: none; stroke: #000000; stroke-width: 0.8; stroke-linejoin: miter; stroke-linecap: square"/>
   </g>
   <g id="text_15">
    <!-- Combined Train Loss -->
    <g transform="translate(312.669688 16.318125) scale(0.12 -0.12)">
     <defs>
      <path id="DejaVuSans-43" d="M 4122 4306 
L 4122 3641 
Q 3803 3938 3442 4084 
Q 3081 4231 2675 4231 
Q 1875 4231 1450 3742 
Q 1025 3253 1025 2328 
Q 1025 1406 1450 917 
Q 1875 428 2675 428 
Q 3081 428 3442 575 
Q 3803 722 4122 1019 
L 4122 359 
Q 3791 134 3420 21 
Q 3050 -91 2638 -91 
Q 1578 -91 968 557 
Q 359 1206 359 2328 
Q 359 3453 968 4101 
Q 1578 4750 2638 4750 
Q 3056 4750 3426 4639 
Q 3797 4528 4122 4306 
z
" transform="scale(0.015625)"/>
      <path id="DejaVuSans-6d" d="M 3328 2828 
Q 3544 3216 3844 3400 
Q 4144 3584 4550 3584 
Q 5097 3584 5394 3201 
Q 5691 2819 5691 2113 
L 5691 0 
L 5113 0 
L 5113 2094 
Q 5113 2597 4934 2840 
Q 4756 3084 4391 3084 
Q 3944 3084 3684 2787 
Q 3425 2491 3425 1978 
L 3425 0 
L 2847 0 
L 2847 2094 
Q 2847 2600 2669 2842 
Q 2491 3084 2119 3084 
Q 1678 3084 1418 2786 
Q 1159 2488 1159 1978 
L 1159 0 
L 581 0 
L 581 3500 
L 1159 3500 
L 1159 2956 
Q 1356 3278 1631 3431 
Q 1906 3584 2284 3584 
Q 2666 3584 2933 3390 
Q 3200 3197 3328 2828 
z
" transform="scale(0.015625)"/>
      <path id="DejaVuSans-62" d="M 3116 1747 
Q 3116 2381 2855 2742 
Q 2594 3103 2138 3103 
Q 1681 3103 1420 2742 
Q 1159 2381 1159 1747 
Q 1159 1113 1420 752 
Q 1681 391 2138 391 
Q 2594 391 2855 752 
Q 3116 1113 3116 1747 
z
M 1159 2969 
Q 1341 3281 1617 3432 
Q 1894 3584 2278 3584 
Q 2916 3584 3314 3078 
Q 3713 2572 3713 1747 
Q 3713 922 3314 415 
Q 2916 -91 2278 -91 
Q 1894 -91 1617 61 
Q 1341 213 1159 525 
L 1159 0 
L 581 0 
L 581 4863 
L 1159 4863 
L 1159 2969 
z
" transform="scale(0.015625)"/>
      <path id="DejaVuSans-65" d="M 3597 1894 
L 3597 1613 
L 953 1613 
Q 991 1019 1311 708 
Q 1631 397 2203 397 
Q 2534 397 2845 478 
Q 3156 559 3463 722 
L 3463 178 
Q 3153 47 2828 -22 
Q 2503 -91 2169 -91 
Q 1331 -91 842 396 
Q 353 884 353 1716 
Q 353 2575 817 3079 
Q 1281 3584 2069 3584 
Q 2775 3584 3186 3129 
Q 3597 2675 3597 1894 
z
M 3022 2063 
Q 3016 2534 2758 2815 
Q 2500 3097 2075 3097 
Q 1594 3097 1305 2825 
Q 1016 2553 972 2059 
L 3022 2063 
z
" transform="scale(0.015625)"/>
      <path id="DejaVuSans-64" d="M 2906 2969 
L 2906 4863 
L 3481 4863 
L 3481 0 
L 2906 0 
L 2906 525 
Q 2725 213 2448 61 
Q 2172 -91 1784 -91 
Q 1150 -91 751 415 
Q 353 922 353 1747 
Q 353 2572 751 3078 
Q 1150 3584 1784 3584 
Q 2172 3584 2448 3432 
Q 2725 3281 2906 2969 
z
M 947 1747 
Q 947 1113 1208 752 
Q 1469 391 1925 391 
Q 2381 391 2643 752 
Q 2906 1113 2906 1747 
Q 2906 2381 2643 2742 
Q 2381 3103 1925 3103 
Q 1469 3103 1208 2742 
Q 947 2381 947 1747 
z
" transform="scale(0.015625)"/>
     </defs>
     <use xlink:href="#DejaVuSans-43"/>
     <use xlink:href="#DejaVuSans-6f" transform="translate(69.824219 0)"/>
     <use xlink:href="#DejaVuSans-6d" transform="translate(131.005859 0)"/>
     <use xlink:href="#DejaVuSans-62" transform="translate(228.417969 0)"/>
     <use xlink:href="#DejaVuSans-69" transform="translate(291.894531 0)"/>
     <use xlink:href="#DejaVuSans-6e" transform="translate(319.677734 0)"/>
     <use xlink:href="#DejaVuSans-65" transform="translate(383.056641 0)"/>
     <use xlink:href="#DejaVuSans-64" transform="translate(444.580078 0)"/>
     <use xlink:href="#DejaVuSans-20" transform="translate(508.056641 0)"/>
     <use xlink:href="#DejaVuSans-54" transform="translate(539.84375 0)"/>
     <use xlink:href="#DejaVuSans-72" transform="translate(586.177734 0)"/>
     <use xlink:href="#DejaVuSans-61" transform="translate(627.291016 0)"/>
     <use xlink:href="#DejaVuSans-69" transform="translate(688.570312 0)"/>
     <use xlink:href="#DejaVuSans-6e" transform="translate(716.353516 0)"/>
     <use xlink:href="#DejaVuSans-20" transform="translate(779.732422 0)"/>
     <use xlink:href="#DejaVuSans-4c" transform="translate(811.519531 0)"/>
     <use xlink:href="#DejaVuSans-6f" transform="translate(865.482422 0)"/>
     <use xlink:href="#DejaVuSans-73" transform="translate(926.664062 0)"/>
     <use xlink:href="#DejaVuSans-73" transform="translate(978.763672 0)"/>
    </g>
   </g>
   <g id="legend_1">
    <g id="patch_7">
     <path d="M 636.08625 103.70875 
L 698.26125 103.70875 
Q 700.26125 103.70875 700.26125 101.70875 
L 700.26125 29.318125 
Q 700.26125 27.318125 698.26125 27.318125 
L 636.08625 27.318125 
Q 634.08625 27.318125 634.08625 29.318125 
L 634.08625 101.70875 
Q 634.08625 103.70875 636.08625 103.70875 
z
" style="fill: #ffffff; opacity: 0.8; stroke: #cccccc; stroke-linejoin: miter"/>
    </g>
    <g id="line2d_18">
     <path d="M 638.08625 35.416562 
L 648.08625 35.416562 
L 658.08625 35.416562 
" style="fill: none; stroke: #1f77b4; stroke-width: 1.5; stroke-linecap: square"/>
    </g>
    <g id="text_16">
     <!-- Fold 1 -->
     <g transform="translate(666.08625 38.916562) scale(0.1 -0.1)">
      <defs>
       <path id="DejaVuSans-46" d="M 628 4666 
L 3309 4666 
L 3309 4134 
L 1259 4134 
L 1259 2759 
L 3109 2759 
L 3109 2228 
L 1259 2228 
L 1259 0 
L 628 0 
L 628 4666 
z
" transform="scale(0.015625)"/>
       <path id="DejaVuSans-6c" d="M 603 4863 
L 1178 4863 
L 1178 0 
L 603 0 
L 603 4863 
z
" transform="scale(0.015625)"/>
      </defs>
      <use xlink:href="#DejaVuSans-46"/>
      <use xlink:href="#DejaVuSans-6f" transform="translate(53.894531 0)"/>
      <use xlink:href="#DejaVuSans-6c" transform="translate(115.076172 0)"/>
      <use xlink:href="#DejaVuSans-64" transform="translate(142.859375 0)"/>
      <use xlink:href="#DejaVuSans-20" transform="translate(206.335938 0)"/>
      <use xlink:href="#DejaVuSans-31" transform="translate(238.123047 0)"/>
     </g>
    </g>
    <g id="line2d_19">
     <path d="M 638.08625 50.094688 
L 648.08625 50.094688 
L 658.08625 50.094688 
" style="fill: none; stroke: #ff7f0e; stroke-width: 1.5; stroke-linecap: square"/>
    </g>
    <g id="text_17">
     <!-- Fold 2 -->
     <g transform="translate(666.08625 53.594688) scale(0.1 -0.1)">
      <use xlink:href="#DejaVuSans-46"/>
      <use xlink:href="#DejaVuSans-6f" transform="translate(53.894531 0)"/>
      <use xlink:href="#DejaVuSans-6c" transform="translate(115.076172 0)"/>
      <use xlink:href="#DejaVuSans-64" transform="translate(142.859375 0)"/>
      <use xlink:href="#DejaVuSans-20" transform="translate(206.335938 0)"/>
      <use xlink:href="#DejaVuSans-32" transform="translate(238.123047 0)"/>
     </g>
    </g>
    <g id="line2d_20">
     <path d="M 638.08625 64.772812 
L 648.08625 64.772812 
L 658.08625 64.772812 
" style="fill: none; stroke: #2ca02c; stroke-width: 1.5; stroke-linecap: square"/>
    </g>
    <g id="text_18">
     <!-- Fold 3 -->
     <g transform="translate(666.08625 68.272812) scale(0.1 -0.1)">
      <defs>
       <path id="DejaVuSans-33" d="M 2597 2516 
Q 3050 2419 3304 2112 
Q 3559 1806 3559 1356 
Q 3559 666 3084 287 
Q 2609 -91 1734 -91 
Q 1441 -91 1130 -33 
Q 819 25 488 141 
L 488 750 
Q 750 597 1062 519 
Q 1375 441 1716 441 
Q 2309 441 2620 675 
Q 2931 909 2931 1356 
Q 2931 1769 2642 2001 
Q 2353 2234 1838 2234 
L 1294 2234 
L 1294 2753 
L 1863 2753 
Q 2328 2753 2575 2939 
Q 2822 3125 2822 3475 
Q 2822 3834 2567 4026 
Q 2313 4219 1838 4219 
Q 1578 4219 1281 4162 
Q 984 4106 628 3988 
L 628 4550 
Q 988 4650 1302 4700 
Q 1616 4750 1894 4750 
Q 2613 4750 3031 4423 
Q 3450 4097 3450 3541 
Q 3450 3153 3228 2886 
Q 3006 2619 2597 2516 
z
" transform="scale(0.015625)"/>
      </defs>
      <use xlink:href="#DejaVuSans-46"/>
      <use xlink:href="#DejaVuSans-6f" transform="translate(53.894531 0)"/>
      <use xlink:href="#DejaVuSans-6c" transform="translate(115.076172 0)"/>
      <use xlink:href="#DejaVuSans-64" transform="translate(142.859375 0)"/>
      <use xlink:href="#DejaVuSans-20" transform="translate(206.335938 0)"/>
      <use xlink:href="#DejaVuSans-33" transform="translate(238.123047 0)"/>
     </g>
    </g>
    <g id="line2d_21">
     <path d="M 638.08625 79.450938 
L 648.08625 79.450938 
L 658.08625 79.450938 
" style="fill: none; stroke: #d62728; stroke-width: 1.5; stroke-linecap: square"/>
    </g>
    <g id="text_19">
     <!-- Fold 4 -->
     <g transform="translate(666.08625 82.950938) scale(0.1 -0.1)">
      <use xlink:href="#DejaVuSans-46"/>
      <use xlink:href="#DejaVuSans-6f" transform="translate(53.894531 0)"/>
      <use xlink:href="#DejaVuSans-6c" transform="translate(115.076172 0)"/>
      <use xlink:href="#DejaVuSans-64" transform="translate(142.859375 0)"/>
      <use xlink:href="#DejaVuSans-20" transform="translate(206.335938 0)"/>
      <use xlink:href="#DejaVuSans-34" transform="translate(238.123047 0)"/>
     </g>
    </g>
    <g id="line2d_22">
     <path d="M 638.08625 94.129063 
L 648.08625 94.129063 
L 658.08625 94.129063 
" style="fill: none; stroke: #9467bd; stroke-width: 1.5; stroke-linecap: square"/>
    </g>
    <g id="text_20">
     <!-- Fold 5 -->
     <g transform="translate(666.08625 97.629063) scale(0.1 -0.1)">
      <defs>
       <path id="DejaVuSans-35" d="M 691 4666 
L 3169 4666 
L 3169 4134 
L 1269 4134 
L 1269 2991 
Q 1406 3038 1543 3061 
Q 1681 3084 1819 3084 
Q 2600 3084 3056 2656 
Q 3513 2228 3513 1497 
Q 3513 744 3044 326 
Q 2575 -91 1722 -91 
Q 1428 -91 1123 -41 
Q 819 9 494 109 
L 494 744 
Q 775 591 1075 516 
Q 1375 441 1709 441 
Q 2250 441 2565 725 
Q 2881 1009 2881 1497 
Q 2881 1984 2565 2268 
Q 2250 2553 1709 2553 
Q 1456 2553 1204 2497 
Q 953 2441 691 2322 
L 691 4666 
z
" transform="scale(0.015625)"/>
      </defs>
      <use xlink:href="#DejaVuSans-46"/>
      <use xlink:href="#DejaVuSans-6f" transform="translate(53.894531 0)"/>
      <use xlink:href="#DejaVuSans-6c" transform="translate(115.076172 0)"/>
      <use xlink:href="#DejaVuSans-64" transform="translate(142.859375 0)"/>
      <use xlink:href="#DejaVuSans-20" transform="translate(206.335938 0)"/>
      <use xlink:href="#DejaVuSans-35" transform="translate(238.123047 0)"/>
     </g>
    </g>
   </g>
  </g>
 </g>
 <defs>
  <clipPath id="p9f073815f2">
   <rect x="43.78125" y="22.318125" width="661.48" height="363.16"/>
  </clipPath>
 </defs>
</svg>
